<svg width="33" height="32" viewBox="0 0 33 32" fill="none" xmlns="http://www.w3.org/2000/svg">
<path fill-rule="evenodd" clip-rule="evenodd" d="M5.74325 10.6667C5.00991 10.6667 4.40991 10.0667 4.40991 9.33333C4.40991 8.6 5.00991 8 5.74325 8H27.0766C27.8099 8 28.4099 8.6 28.4099 9.33333C28.4099 10.0667 27.8099 10.6667 27.0766 10.6667H5.74325ZM5.74325 17.3333H27.0766C27.8099 17.3333 28.4099 16.7333 28.4099 16C28.4099 15.2667 27.8099 14.6667 27.0766 14.6667H5.74325C5.00991 14.6667 4.40991 15.2667 4.40991 16C4.40991 16.7333 5.00991 17.3333 5.74325 17.3333ZM5.74325 24H27.0766C27.8099 24 28.4099 23.4 28.4099 22.6667C28.4099 21.9333 27.8099 21.3333 27.0766 21.3333H5.74325C5.00991 21.3333 4.40991 21.9333 4.40991 22.6667C4.40991 23.4 5.00991 24 5.74325 24Z" fill="#0019EE"/>
</svg>
