<svg width="153" height="52" viewBox="0 0 153 52" fill="none" xmlns="http://www.w3.org/2000/svg">
<path d="M140.091 0.926861H12.7494C12.2852 0.926861 11.8266 0.926861 11.3637 0.929393C10.9761 0.931925 10.5917 0.939279 10.2004 0.945469C9.35045 0.955471 8.50246 1.03025 7.66385 1.16915C6.82641 1.31108 6.0152 1.57865 5.25767 1.96282C4.50106 2.35024 3.80973 2.85366 3.20875 3.4548C2.60461 4.05425 2.10102 4.74714 1.71733 5.50681C1.33258 6.26497 1.0658 7.07742 0.926188 7.91608C0.785253 8.75368 0.709414 9.60094 0.699353 10.4503C0.687606 10.8384 0.686366 11.2277 0.680176 11.6159V40.8745C0.686366 41.2675 0.687606 41.6483 0.699353 42.0414C0.709417 42.8907 0.785256 43.7379 0.926188 44.5755C1.06541 45.4146 1.33221 46.2275 1.71733 46.986C2.10084 47.7432 2.60451 48.4333 3.20875 49.0294C3.80745 49.6332 4.49923 50.137 5.25767 50.5214C6.0152 50.9066 6.82632 51.1758 7.66385 51.3199C8.5026 51.4577 9.3505 51.5325 10.2004 51.5437C10.5917 51.5523 10.9761 51.5572 11.3637 51.5572C11.8266 51.5598 12.2852 51.5598 12.7494 51.5598H140.091C140.546 51.5598 141.008 51.5598 141.463 51.5572C141.849 51.5572 142.245 51.5523 142.63 51.5437C143.479 51.5331 144.325 51.4583 145.162 51.3199C146.002 51.1748 146.816 50.9057 147.577 50.5214C148.335 50.1367 149.026 49.633 149.625 49.0294C150.227 48.4309 150.732 47.7414 151.12 46.986C151.502 46.227 151.767 45.4141 151.904 44.5755C152.045 43.7378 152.124 42.8908 152.139 42.0414C152.144 41.6483 152.144 41.2675 152.144 40.8745C152.154 40.4146 152.154 39.9572 152.154 39.4899V12.9979C152.154 12.5344 152.154 12.0745 152.144 11.6159C152.144 11.2277 152.144 10.8384 152.139 10.4502C152.124 9.60081 152.045 8.75374 151.904 7.91603C151.766 7.07785 151.502 6.26547 151.12 5.50676C150.339 3.98407 149.1 2.74461 147.577 1.96271C146.816 1.57948 146.002 1.31198 145.162 1.16904C144.325 1.02952 143.479 0.954719 142.63 0.945292C142.245 0.939114 141.849 0.931697 141.463 0.929228C141.008 0.926697 140.546 0.926697 140.091 0.926697V0.926861Z" fill="#A6A6A6"/>
<path d="M11.37 50.4521C10.9843 50.4521 10.608 50.4472 10.2253 50.4386C9.43263 50.4283 8.6418 50.3593 7.85931 50.2321C7.12968 50.1065 6.42286 49.8727 5.76217 49.5386C5.10754 49.2072 4.51047 48.7727 3.99382 48.2518C3.46969 47.7369 3.03333 47.1398 2.70203 46.484C2.36708 45.824 2.13528 45.1166 2.01469 44.3863C1.88447 43.6017 1.81401 42.8082 1.80393 42.0129C1.79591 41.7459 1.7854 40.8571 1.7854 40.8571V11.6159C1.7854 11.6159 1.79659 10.7407 1.804 10.4835C1.81365 9.68946 1.88369 8.89728 2.01353 8.11383C2.13434 7.38158 2.36632 6.67208 2.70145 6.0099C3.03153 5.35461 3.46547 4.75703 3.98644 4.24035C4.50682 3.71875 5.10581 3.28202 5.76155 2.94608C6.42072 2.61302 7.1262 2.38092 7.85436 2.25755C8.63942 2.12915 9.433 2.05974 10.2284 2.04988L11.3706 2.03442H141.457L142.613 2.0505C143.401 2.05987 144.188 2.12866 144.966 2.25631C145.701 2.38123 146.414 2.61495 147.081 2.94979C148.394 3.62681 149.463 4.69792 150.138 6.01299C150.467 6.6706 150.696 7.37431 150.815 8.10023C150.946 8.89011 151.02 9.68852 151.035 10.4891C151.039 10.8476 151.039 11.2327 151.039 11.6159C151.049 12.0906 151.049 12.5424 151.049 12.9979V39.4899C151.049 39.9497 151.049 40.3985 151.039 40.8509C151.039 41.2625 151.039 41.6396 151.034 42.0277C151.019 42.814 150.947 43.5982 150.818 44.3739C150.699 45.1094 150.469 45.8224 150.134 46.4878C149.8 47.1365 149.366 47.7284 148.848 48.2419C148.331 48.7657 147.733 49.2027 147.077 49.5362C146.412 49.8729 145.7 50.1075 144.966 50.2321C144.183 50.3599 143.392 50.429 142.6 50.4386C142.229 50.4472 141.841 50.4521 141.464 50.4521L140.091 50.4547L11.37 50.4521Z" fill="black"/>
<path d="M32.032 26.6245C32.0457 25.568 32.3263 24.5321 32.8478 23.6131C33.3694 22.6942 34.1149 21.9221 35.015 21.3687C34.4432 20.5521 33.6889 19.88 32.8119 19.4059C31.9349 18.9318 30.9594 18.6687 29.9629 18.6375C27.8373 18.4144 25.7766 19.9094 24.6934 19.9094C23.5893 19.9094 21.9216 18.6597 20.1257 18.6966C18.9641 18.7341 17.832 19.0719 16.8398 19.6771C15.8475 20.2822 15.0289 21.134 14.4638 22.1496C12.0157 26.3881 13.8418 32.6173 16.1868 36.0434C17.3601 37.721 18.7314 39.595 20.5256 39.5286C22.2814 39.4557 22.9371 38.409 25.0565 38.409C27.1562 38.409 27.7714 39.5286 29.6021 39.4863C31.4861 39.4557 32.6731 37.8012 33.8052 36.1077C34.6482 34.9123 35.2969 33.5911 35.7273 32.1931C34.6327 31.7301 33.6986 30.9552 33.0415 29.965C32.3844 28.9747 32.0333 27.813 32.032 26.6245Z" fill="white"/>
<path d="M28.5742 16.3843C29.6014 15.1511 30.1075 13.5661 29.985 11.9658C28.4155 12.1306 26.9658 12.8807 25.9247 14.0665C25.4157 14.6459 25.0258 15.3198 24.7774 16.0499C24.529 16.78 24.4269 17.5519 24.477 18.3215C25.262 18.3295 26.0386 18.1594 26.7483 17.8238C27.458 17.4883 28.0823 16.9961 28.5742 16.3843Z" fill="white"/>
<path d="M54.2262 35.2814H48.2345L46.7956 39.5301H44.2578L49.933 23.8111H52.5697L58.2449 39.5301H55.6638L54.2262 35.2814ZM48.8551 33.3209H53.6044L51.2632 26.4256H51.1976L48.8551 33.3209Z" fill="white"/>
<path d="M70.5024 33.8003C70.5024 37.3617 68.5963 39.6498 65.7197 39.6498C64.9911 39.6879 64.2664 39.52 63.6287 39.1654C62.9909 38.8108 62.466 38.2838 62.1139 37.6447H62.0594V43.3211H59.707V28.0695H61.9841V29.9756H62.0273C62.3956 29.3396 62.9295 28.8153 63.572 28.4585C64.2146 28.1018 64.9419 27.9259 65.6765 27.9496C68.5851 27.9496 70.5024 30.2488 70.5024 33.8003ZM68.0845 33.8003C68.0845 31.48 66.8854 29.9546 65.0559 29.9546C63.2585 29.9546 62.0496 31.5122 62.0496 33.8003C62.0496 36.1094 63.2585 37.6559 65.0559 37.6559C66.8854 37.6559 68.0845 36.1416 68.0845 33.8003Z" fill="white"/>
<path d="M83.1152 33.8005C83.1152 37.3619 81.2091 39.65 78.3325 39.65C77.6038 39.6881 76.8792 39.5203 76.2414 39.1657C75.6037 38.8111 75.0788 38.284 74.7267 37.6449H74.6722V43.3214H72.3198V28.0697H74.5968V29.9759H74.6401C75.0084 29.3398 75.5422 28.8155 76.1848 28.4588C76.8274 28.102 77.5546 27.9261 78.2892 27.9498C81.1979 27.9498 83.1152 30.249 83.1152 33.8005ZM80.6973 33.8005C80.6973 31.4803 79.4982 29.9548 77.6687 29.9548C75.8713 29.9548 74.6624 31.5124 74.6624 33.8005C74.6624 36.1097 75.8713 37.6561 77.6687 37.6561C79.4982 37.6561 80.6973 36.1418 80.6973 33.8005H80.6973Z" fill="white"/>
<path d="M91.4518 35.1504C91.6261 36.7092 93.1404 37.7327 95.2097 37.7327C97.1925 37.7327 98.619 36.7091 98.619 35.3036C98.619 34.0835 97.7586 33.353 95.7214 32.8523L93.6843 32.3616C90.7979 31.6644 89.4579 30.3145 89.4579 28.124C89.4579 25.4119 91.8214 23.549 95.1775 23.549C98.4991 23.549 100.776 25.4119 100.853 28.124H98.478C98.3359 26.5553 97.0392 25.6085 95.1441 25.6085C93.2491 25.6085 91.9524 26.5665 91.9524 27.9609C91.9524 29.0722 92.7806 29.7261 94.8067 30.2267L96.5385 30.6519C99.7636 31.4146 101.104 32.7102 101.104 35.0094C101.104 37.9502 98.7611 39.792 95.0353 39.792C91.5494 39.792 89.1958 37.9934 89.0437 35.1503L91.4518 35.1504Z" fill="white"/>
<path d="M106.182 25.3576V28.0697H108.362V29.9326H106.182V36.2506C106.182 37.2321 106.619 37.6895 107.577 37.6895C107.835 37.685 108.094 37.6668 108.35 37.6351V39.4868C107.92 39.5673 107.482 39.6037 107.044 39.5956C104.724 39.5956 103.819 38.7241 103.819 36.5015V29.9326H102.152V28.0697H103.819V25.3576H106.182Z" fill="white"/>
<path d="M109.622 33.8005C109.622 30.1946 111.746 27.9288 115.057 27.9288C118.38 27.9288 120.494 30.1946 120.494 33.8005C120.494 37.4163 118.391 39.6722 115.057 39.6722C111.724 39.6722 109.622 37.4163 109.622 33.8005ZM118.097 33.8005C118.097 31.327 116.963 29.8671 115.057 29.8671C113.151 29.8671 112.019 31.3381 112.019 33.8005C112.019 36.2839 113.151 37.7327 115.057 37.7327C116.963 37.7327 118.097 36.2839 118.097 33.8005H118.097Z" fill="white"/>
<path d="M122.433 28.0697H124.677V30.0203H124.731C124.883 29.4111 125.24 28.8727 125.742 28.4956C126.244 28.1185 126.861 27.9258 127.488 27.9497C127.759 27.9488 128.029 27.9782 128.294 28.0375V30.2379C127.952 30.1333 127.595 30.0853 127.237 30.0957C126.895 30.0819 126.555 30.1421 126.238 30.2723C125.922 30.4026 125.638 30.5997 125.405 30.8502C125.172 31.1007 124.996 31.3986 124.889 31.7235C124.782 32.0484 124.747 32.3926 124.786 32.7324V39.5301H122.433L122.433 28.0697Z" fill="white"/>
<path d="M139.139 36.1632C138.822 38.2436 136.796 39.6714 134.204 39.6714C130.87 39.6714 128.801 37.4376 128.801 33.854C128.801 30.2593 130.881 27.9279 134.105 27.9279C137.276 27.9279 139.27 30.106 139.27 33.5809V34.3868H131.175V34.529C131.138 34.9508 131.191 35.3756 131.33 35.7754C131.47 36.1752 131.693 36.5408 131.984 36.8478C132.276 37.1548 132.63 37.3963 133.022 37.5562C133.414 37.7161 133.835 37.7907 134.258 37.7751C134.814 37.8272 135.372 37.6985 135.849 37.408C136.326 37.1176 136.696 36.681 136.905 36.1632L139.139 36.1632ZM131.187 32.7427H136.916C136.937 32.3635 136.88 31.984 136.747 31.628C136.615 31.2721 136.41 30.9473 136.146 30.6742C135.882 30.4011 135.565 30.1855 135.213 30.0409C134.862 29.8963 134.485 29.8259 134.105 29.8341C133.722 29.8318 133.342 29.9054 132.988 30.0506C132.633 30.1959 132.311 30.4099 132.04 30.6803C131.768 30.9507 131.553 31.2722 131.407 31.6262C131.26 31.9802 131.186 32.3597 131.187 32.7428V32.7427Z" fill="white"/>
<path d="M48.5614 11.9787C49.0546 11.9433 49.5495 12.0178 50.0104 12.1969C50.4713 12.3759 50.8867 12.655 51.2267 13.014C51.5667 13.373 51.8228 13.803 51.9764 14.273C52.1301 14.7429 52.1776 15.2412 52.1154 15.7317C52.1154 18.1447 50.8113 19.5317 48.5614 19.5317H45.8333V11.9787H48.5614ZM47.0064 18.4635H48.4304C48.7828 18.4846 49.1355 18.4268 49.4628 18.2944C49.79 18.162 50.0836 17.9582 50.3222 17.698C50.5608 17.4378 50.7384 17.1277 50.842 16.7902C50.9457 16.4527 50.9727 16.0963 50.9213 15.7471C50.969 15.3992 50.9392 15.045 50.834 14.71C50.7288 14.375 50.5507 14.0674 50.3127 13.8093C50.0746 13.5511 49.7824 13.3488 49.457 13.2169C49.1316 13.085 48.781 13.0266 48.4304 13.0461H47.0064V18.4635Z" fill="white"/>
<path d="M53.4404 16.6791C53.4046 16.3045 53.4475 15.9266 53.5663 15.5696C53.685 15.2125 53.8771 14.8842 54.1302 14.6058C54.3833 14.3273 54.6918 14.1048 55.0359 13.9526C55.38 13.8003 55.7522 13.7217 56.1285 13.7217C56.5048 13.7217 56.8769 13.8003 57.221 13.9526C57.5651 14.1048 57.8736 14.3273 58.1267 14.6058C58.3798 14.8842 58.5719 15.2125 58.6907 15.5696C58.8095 15.9266 58.8523 16.3045 58.8165 16.6791C58.853 17.0541 58.8107 17.4325 58.6922 17.7902C58.5737 18.1478 58.3817 18.4767 58.1286 18.7557C57.8754 19.0347 57.5667 19.2576 57.2222 19.4102C56.8778 19.5628 56.5052 19.6416 56.1285 19.6416C55.7517 19.6416 55.3792 19.5628 55.0347 19.4102C54.6902 19.2576 54.3815 19.0347 54.1284 18.7557C53.8752 18.4767 53.6832 18.1478 53.5647 17.7902C53.4463 17.4325 53.4039 17.0541 53.4404 16.6791ZM57.6594 16.6791C57.6594 15.4436 57.1044 14.7211 56.1303 14.7211C55.1525 14.7211 54.6025 15.4436 54.6025 16.6791C54.6025 17.9246 55.1526 18.6415 56.1303 18.6415C57.1044 18.6415 57.6595 17.9196 57.6595 16.6791H57.6594Z" fill="white"/>
<path d="M65.9642 19.5311H64.7973L63.6192 15.3331H63.5302L62.3571 19.5311H61.2013L59.6301 13.8312H60.7711L61.7922 18.1805H61.8762L63.0481 13.8312H64.1273L65.2991 18.1805H65.3881L66.4043 13.8312H67.5292L65.9642 19.5311Z" fill="white"/>
<path d="M68.8491 13.8316H69.932V14.7371H70.0161C70.1587 14.4119 70.3992 14.1393 70.7041 13.9572C71.009 13.7752 71.3631 13.6928 71.717 13.7216C71.9943 13.7008 72.2728 13.7426 72.5318 13.844C72.7908 13.9454 73.0236 14.1037 73.2131 14.3073C73.4026 14.5109 73.5438 14.7545 73.6264 15.0201C73.7089 15.2857 73.7306 15.5665 73.6899 15.8416V19.5315H72.565V16.1241C72.565 15.2081 72.167 14.7526 71.335 14.7526C71.1467 14.7438 70.9588 14.7759 70.784 14.8465C70.6092 14.9172 70.4518 15.0248 70.3226 15.162C70.1933 15.2992 70.0952 15.4627 70.0351 15.6414C69.9749 15.82 69.9541 16.0096 69.974 16.197V19.5316H68.8491L68.8491 13.8316Z" fill="white"/>
<path d="M75.4824 11.6066H76.6073V19.5316H75.4824V11.6066Z" fill="white"/>
<path d="M78.1711 16.6792C78.1353 16.3046 78.1782 15.9266 78.297 15.5695C78.4158 15.2125 78.608 14.8842 78.8611 14.6057C79.1142 14.3273 79.4227 14.1048 79.7669 13.9525C80.111 13.8003 80.4832 13.7216 80.8595 13.7216C81.2358 13.7216 81.6079 13.8003 81.9521 13.9525C82.2962 14.1048 82.6047 14.3273 82.8578 14.6057C83.111 14.8842 83.3031 15.2125 83.4219 15.5695C83.5407 15.9266 83.5836 16.3046 83.5478 16.6792C83.5843 17.0541 83.5419 17.4326 83.4234 17.7902C83.3049 18.1479 83.1128 18.4767 82.8597 18.7557C82.6065 19.0347 82.2977 19.2577 81.9533 19.4102C81.6088 19.5628 81.2362 19.6416 80.8595 19.6416C80.4827 19.6416 80.1101 19.5628 79.7657 19.4102C79.4212 19.2577 79.1124 19.0347 78.8593 18.7557C78.6061 18.4767 78.4141 18.1479 78.2956 17.7902C78.177 17.4326 78.1347 17.0541 78.1711 16.6792ZM82.3901 16.6792C82.3901 15.4436 81.8351 14.7211 80.861 14.7211C79.8832 14.7211 79.3332 15.4436 79.3332 16.6792C79.3332 17.9246 79.8832 18.6416 80.861 18.6416C81.8351 18.6416 82.3901 17.9196 82.3901 16.6792H82.3901Z" fill="white"/>
<path d="M84.7319 17.9197C84.7319 16.8936 85.4959 16.3021 86.8519 16.2181L88.3959 16.1291V15.6371C88.3959 15.0351 87.9979 14.6951 87.229 14.6951C86.601 14.6951 86.1659 14.9257 86.041 15.3287H84.952C85.0669 14.3496 85.9879 13.7217 87.2809 13.7217C88.7099 13.7217 89.5159 14.4331 89.5159 15.6371V19.5316H88.433V18.7306H88.344C88.1633 19.0179 87.9097 19.2522 87.6089 19.4094C87.3081 19.5666 86.9709 19.6412 86.6319 19.6255C86.3926 19.6504 86.1508 19.6249 85.922 19.5506C85.6932 19.4763 85.4825 19.3548 85.3034 19.1941C85.1244 19.0334 84.9811 18.837 84.8827 18.6174C84.7842 18.3979 84.7329 18.1602 84.7319 17.9197ZM88.3959 17.4326V16.9561L87.004 17.0451C86.219 17.0976 85.863 17.3646 85.863 17.8671C85.863 18.3801 86.308 18.6786 86.92 18.6786C87.0993 18.6968 87.2804 18.6787 87.4525 18.6254C87.6247 18.5721 87.7844 18.4848 87.9221 18.3685C88.0598 18.2523 88.1727 18.1095 88.2541 17.9487C88.3355 17.7879 88.3837 17.6124 88.3959 17.4326Z" fill="white"/>
<path d="M90.9944 16.6791C90.9944 14.8781 91.9203 13.7371 93.3604 13.7371C93.7166 13.7207 94.0701 13.806 94.3797 13.9831C94.6892 14.1602 94.9419 14.4217 95.1083 14.7371H95.1924V11.6066H96.3173V19.5316H95.2394V18.631H95.1503C94.9711 18.9443 94.7096 19.2026 94.3941 19.3779C94.0785 19.5531 93.7211 19.6388 93.3604 19.6255C91.9104 19.6256 90.9944 18.4846 90.9944 16.6791ZM92.1564 16.6791C92.1564 17.8881 92.7263 18.6156 93.6794 18.6156C94.6275 18.6156 95.2134 17.8776 95.2134 16.6841C95.2134 15.4961 94.6213 14.7477 93.6794 14.7477C92.7324 14.7477 92.1564 15.4801 92.1564 16.6791H92.1564Z" fill="white"/>
<path d="M100.971 16.6791C100.936 16.3045 100.978 15.9266 101.097 15.5696C101.216 15.2125 101.408 14.8842 101.661 14.6058C101.914 14.3273 102.223 14.1048 102.567 13.9526C102.911 13.8003 103.283 13.7217 103.659 13.7217C104.036 13.7217 104.408 13.8003 104.752 13.9526C105.096 14.1048 105.405 14.3273 105.658 14.6058C105.911 14.8842 106.103 15.2125 106.222 15.5696C106.34 15.9266 106.383 16.3045 106.347 16.6791C106.384 17.0541 106.342 17.4325 106.223 17.7902C106.105 18.1478 105.913 18.4767 105.66 18.7557C105.406 19.0347 105.098 19.2576 104.753 19.4102C104.409 19.5628 104.036 19.6416 103.659 19.6416C103.283 19.6416 102.91 19.5628 102.566 19.4102C102.221 19.2576 101.913 19.0347 101.659 18.7557C101.406 18.4767 101.214 18.1478 101.096 17.7902C100.977 17.4325 100.935 17.0541 100.971 16.6791ZM105.19 16.6791C105.19 15.4436 104.635 14.7211 103.661 14.7211C102.684 14.7211 102.133 15.4436 102.133 16.6791C102.133 17.9246 102.684 18.6415 103.661 18.6415C104.635 18.6415 105.19 17.9196 105.19 16.6791Z" fill="white"/>
<path d="M107.857 13.8316H108.94V14.7371H109.024C109.166 14.4119 109.407 14.1393 109.712 13.9572C110.017 13.7752 110.371 13.6928 110.725 13.7216C111.002 13.7008 111.28 13.7426 111.539 13.844C111.798 13.9454 112.031 14.1037 112.221 14.3073C112.41 14.5109 112.551 14.7545 112.634 15.0201C112.716 15.2857 112.738 15.5665 112.697 15.8416V19.5315H111.573V16.1241C111.573 15.2081 111.175 14.7526 110.343 14.7526C110.154 14.7438 109.966 14.7759 109.792 14.8465C109.617 14.9172 109.459 15.0248 109.33 15.162C109.201 15.2992 109.103 15.4627 109.043 15.6414C108.982 15.82 108.962 16.0096 108.982 16.197V19.5316H107.857V13.8316Z" fill="white"/>
<path d="M119.056 12.4132V13.8583H120.291V14.8058H119.056V17.7367C119.056 18.3338 119.302 18.5952 119.862 18.5952C120.005 18.5948 120.148 18.5861 120.291 18.5693V19.5063C120.089 19.5424 119.884 19.5616 119.679 19.5637C118.428 19.5637 117.93 19.1237 117.93 18.0247V14.8057H117.025V13.8582H117.93V12.4132H119.056Z" fill="white"/>
<path d="M121.825 11.6066H122.94V14.7476H123.029C123.179 14.4194 123.426 14.1452 123.737 13.9625C124.048 13.7798 124.408 13.6974 124.767 13.7266C125.043 13.7116 125.319 13.7576 125.575 13.8615C125.831 13.9653 126.061 14.1244 126.248 14.3274C126.436 14.5303 126.576 14.7722 126.66 15.0356C126.743 15.2991 126.767 15.5777 126.73 15.8515V19.5316H125.604V16.129C125.604 15.2186 125.18 14.7575 124.385 14.7575C124.192 14.7417 123.998 14.7682 123.816 14.8354C123.634 14.9026 123.468 15.0087 123.332 15.1463C123.195 15.2839 123.09 15.4498 123.024 15.6322C122.958 15.8147 122.933 16.0094 122.95 16.2026V19.5315H121.825L121.825 11.6066Z" fill="white"/>
<path d="M133.289 17.9926C133.136 18.5135 132.805 18.9641 132.354 19.2656C131.902 19.567 131.359 19.7001 130.819 19.6416C130.444 19.6515 130.071 19.5796 129.726 19.4308C129.381 19.282 129.072 19.06 128.822 18.7801C128.571 18.5001 128.385 18.1691 128.275 17.8098C128.165 17.4505 128.135 17.0717 128.186 16.6996C128.136 16.3263 128.167 15.9466 128.277 15.5863C128.386 15.2259 128.572 14.8933 128.821 14.6109C129.07 14.3286 129.377 14.103 129.721 13.9496C130.065 13.7962 130.438 13.7184 130.814 13.7217C132.4 13.7217 133.357 14.8052 133.357 16.5951V16.9876H129.332V17.0506C129.315 17.2598 129.341 17.4703 129.41 17.6688C129.478 17.8672 129.587 18.0491 129.73 18.2028C129.873 18.3566 130.047 18.4788 130.239 18.5615C130.432 18.6443 130.64 18.6859 130.85 18.6835C131.119 18.7158 131.392 18.6674 131.633 18.5443C131.875 18.4213 132.074 18.2292 132.206 17.9925L133.289 17.9926ZM129.332 16.1556H132.211C132.225 15.9643 132.199 15.7722 132.135 15.5915C132.07 15.4109 131.969 15.2457 131.837 15.1067C131.705 14.9676 131.545 14.8577 131.368 14.7841C131.191 14.7104 131 14.6747 130.808 14.6791C130.614 14.6766 130.421 14.7131 130.24 14.7865C130.06 14.8598 129.896 14.9685 129.759 15.1061C129.621 15.2437 129.513 15.4075 129.44 15.5877C129.366 15.768 129.33 15.9611 129.332 16.1556H129.332Z" fill="white"/>
</svg>
