<svg width="79" height="79" viewBox="0 0 79 79" fill="none" xmlns="http://www.w3.org/2000/svg">
<rect x="0.355225" y="0.616089" width="77.7539" height="77.7539" rx="38.877" fill="#F7931A"/>
<path fill-rule="evenodd" clip-rule="evenodd" d="M39.3693 59.9252L35.8056 59.0362L37.2622 53.1995C36.3032 52.9688 35.3442 52.7096 34.419 52.4504L32.9572 58.3131L29.3831 57.4371L30.8578 51.5096L29.917 51.2634H29.8859L29.545 51.1745C29.1396 51.0687 28.7322 50.9623 28.3153 50.8591L23.6812 49.6954L25.4513 45.6107C25.4589 45.6107 25.6693 45.666 25.9674 45.7443L25.9678 45.7444C26.6924 45.9348 27.9348 46.2612 28.0431 46.2612C28.1842 46.2941 28.3285 46.3115 28.4734 46.3131C29.027 46.2988 29.5118 45.9376 29.6838 45.4111L33.6803 29.3601C33.7866 28.3319 33.048 27.4086 32.0216 27.2867C31.9956 27.24 30.3809 26.8616 29.4298 26.6439L30.3784 22.834L35.3028 24.0625V24.0806C35.987 24.2517 36.6816 24.4124 37.5784 24.6145L39.035 18.7571L42.6013 19.6435L41.168 25.3869L41.3339 25.4258C42.2203 25.6279 43.1352 25.8379 44.0216 26.0608L45.4522 20.3536L49.0108 21.2504L47.549 27.1078C52.9918 28.9817 55.257 31.5891 54.7024 35.3109C54.544 37.8868 52.6752 40.0353 50.146 40.5489C51.7858 41.1935 53.077 42.5009 53.701 44.1487C54.325 45.7965 54.2236 47.6313 53.422 49.2003C52.4186 52.6547 49.0871 54.896 45.5093 54.5239C43.9415 54.4955 42.3798 54.3219 40.844 54.0055L39.3667 59.9174L39.3693 59.9252ZM37.5307 40.3163L35.5713 48.1694L36.2581 48.3483C38.178 48.9221 40.1607 49.2598 42.1622 49.3539C44.64 49.3539 46.1173 48.4727 46.5501 46.7362C46.7915 45.8791 46.6637 44.9601 46.1977 44.2014C44.8172 41.9636 40.6569 41.0251 38.4269 40.5221L38.4223 40.521C38.0724 40.4433 37.7795 40.3759 37.5385 40.3163H37.5307ZM38.4248 36.7252L40.2002 29.6029C40.405 29.6547 40.6564 29.7118 40.9415 29.774C42.7609 30.1783 46.1484 30.9377 47.3277 32.8401C47.7648 33.5613 47.8804 34.4324 47.6465 35.2426C47.2473 36.8651 45.9359 37.6893 43.7588 37.6893C42.1447 37.6187 40.546 37.3453 39.0002 36.8755L38.9225 36.8547L38.4248 36.7252Z" fill="white"/>
</svg>
