<svg width="25" height="25" viewBox="0 0 25 25" fill="none" xmlns="http://www.w3.org/2000/svg">
<path d="M13.2539 3.67725C12.5639 3.67725 12.0039 4.23725 12.0039 4.92725V5.17725V12.5474L13.5039 11.5874V6.67725C14.3324 6.67725 15.0039 6.00575 15.0039 5.17725H19.5039C19.5039 6.00575 20.1754 6.67725 21.0039 6.67725V18.6772C20.1754 18.6772 19.5039 19.3487 19.5039 20.1772H15.0039C15.0039 19.4672 14.5135 18.8773 13.8535 18.7173L13.5039 19.0923L12.0742 20.6226C12.0743 20.6229 12.0741 20.6232 12.0742 20.6235L12.0293 20.6724C12.1443 21.2474 12.6489 21.6772 13.2539 21.6772H13.5039H21.0039H21.2539C21.9439 21.6772 22.5039 21.1172 22.5039 20.4272V20.1772V5.17725V4.92725C22.5039 4.23725 21.9439 3.67725 21.2539 3.67725H21.0039H13.5039H13.2539ZM17.2539 6.67725C16.9887 6.67725 16.7343 6.7826 16.5468 6.97014C16.3593 7.15768 16.2539 7.41203 16.2539 7.67725C16.2539 7.94246 16.3593 8.19682 16.5468 8.38435C16.7343 8.57189 16.9887 8.67725 17.2539 8.67725C17.5191 8.67725 17.7735 8.57189 17.961 8.38435C18.1486 8.19682 18.2539 7.94246 18.2539 7.67725C18.2539 7.41203 18.1486 7.15768 17.961 6.97014C17.7735 6.7826 17.5191 6.67725 17.2539 6.67725ZM11.0039 8.11768L7.67383 9.14209C7.07883 9.32709 6.54895 9.69678 6.16895 10.1968L2.20898 15.4077C2.07398 15.5827 2.00391 15.7972 2.00391 16.0122V20.6772C2.00391 21.2272 2.45391 21.6772 3.00391 21.6772L7.99414 21.6724C9.10414 21.6724 10.1591 21.2119 10.9141 20.4019L16.0586 14.8921C16.3536 14.5821 16.499 14.1826 16.499 13.7876C16.499 13.3526 16.3236 12.9171 15.9736 12.6021C15.4486 12.1221 14.6636 12.0474 14.0586 12.4224L11.5293 14.0376V14.0425L10.0088 15.0571C9.93879 15.1021 9.85918 15.1369 9.78418 15.1519L9.75391 15.1724L9.76855 15.1577C9.71355 15.1727 9.65852 15.1772 9.60352 15.1772C9.35852 15.1772 9.11363 15.0575 8.97363 14.8325C8.74863 14.4825 8.84922 14.0174 9.19922 13.7974L11.0039 12.6421V8.11768ZM17.2539 10.2319C16.3639 10.2319 15.5691 10.6069 15.0791 11.1919C15.6641 11.2319 16.2134 11.4668 16.6484 11.8618C17.1884 12.3468 17.499 13.0526 17.499 13.7876C17.499 14.2626 17.3738 14.7177 17.1338 15.1177C17.1738 15.1227 17.2139 15.1226 17.2539 15.1226C18.7739 15.1226 20.0039 14.0272 20.0039 12.6772C20.0039 11.3272 18.7739 10.2319 17.2539 10.2319ZM17.2539 16.6772C16.9887 16.6772 16.7343 16.7826 16.5468 16.9701C16.3593 17.1577 16.2539 17.412 16.2539 17.6772C16.2539 17.9425 16.3593 18.1968 16.5468 18.3844C16.7343 18.5719 16.9887 18.6772 17.2539 18.6772C17.5191 18.6772 17.7735 18.5719 17.961 18.3844C18.1486 18.1968 18.2539 17.9425 18.2539 17.6772C18.2539 17.412 18.1486 17.1577 17.961 16.9701C17.7735 16.7826 17.5191 16.6772 17.2539 16.6772Z" fill="#0019EE"/>
</svg>
