<svg width="25" height="25" viewBox="0 0 25 25" fill="none" xmlns="http://www.w3.org/2000/svg">
<circle cx="12.5" cy="12.8596" r="12" fill="#E3E4E8"/>
<path d="M11.8344 8.33219L11.8344 15.7789L8.58109 12.5255C8.32109 12.2655 7.89442 12.2655 7.63442 12.5255C7.37442 12.7855 7.37442 13.2055 7.63442 13.4655L12.0278 17.8589C12.2878 18.1189 12.7078 18.1189 12.9678 17.8589L17.3678 13.4722C17.4926 13.3476 17.5627 13.1785 17.5627 13.0022C17.5627 12.8258 17.4926 12.6567 17.3678 12.5322C17.1078 12.2722 16.6878 12.2722 16.4278 12.5322L13.1678 15.7789L13.1678 8.33219C13.1678 7.96553 12.8678 7.66553 12.5011 7.66553C12.1344 7.66553 11.8344 7.96553 11.8344 8.33219Z" fill="#464853"/>
</svg>
