<svg width="21" height="20" viewBox="0 0 21 20" fill="none" xmlns="http://www.w3.org/2000/svg">
<circle cx="10.0036" cy="10.0002" r="8.05048" fill="white"/>
<path d="M10.0039 0C4.48391 0 0.00390625 4.48 0.00390625 10C0.00390625 15.52 4.48391 20 10.0039 20C15.5239 20 20.0039 15.52 20.0039 10C20.0039 4.48 15.5239 0 10.0039 0Z" fill="#0019EE"/>
<path d="M10.0032 3.65771C11.5169 3.65771 12.7388 4.87962 12.7388 6.39333C12.7388 7.90704 11.5169 9.12895 10.0032 9.12895C8.48949 9.12895 7.26758 7.90704 7.26758 6.39333C7.26758 4.87962 8.48949 3.65771 10.0032 3.65771Z" fill="white"/>
<path d="M10.0044 16.6061C7.72476 16.6061 5.70952 15.4389 4.5332 13.6699C4.56056 11.8553 8.18069 10.8613 10.0044 10.8613C11.8191 10.8613 15.4483 11.8553 15.4757 13.6699C14.2994 15.4389 12.2841 16.6061 10.0044 16.6061Z" fill="white"/>
<path d="M8.90036 16.5515L9.76137 13.2946C9.79107 13.1823 9.89271 13.104 10.0089 13.104C10.1254 13.104 10.2272 13.1826 10.2566 13.2953L11.1085 16.553C11.2031 16.9146 10.9302 17.268 10.5564 17.268H9.45208C9.07764 17.268 8.80466 16.9135 8.90036 16.5515Z" fill="#0019EE"/>
<path d="M10.048 11.4394H9.95004C9.51948 11.4394 9.244 11.898 9.44624 12.2781L9.55239 12.4776C9.63998 12.6422 9.81126 12.7451 9.99774 12.7451C10.1824 12.7451 10.3524 12.6442 10.4407 12.482L10.5491 12.2831C10.7563 11.9028 10.4811 11.4394 10.048 11.4394Z" fill="#0019EE"/>
</svg>
