<svg width="55" height="47" viewBox="0 0 55 47" fill="none" xmlns="http://www.w3.org/2000/svg">
<path fill-rule="evenodd" clip-rule="evenodd" d="M34.3584 7.12549C45.2458 7.12549 54.0177 16.0525 54.0177 27.0155C54.0177 38.0307 45.2458 46.9055 34.3584 46.9055C23.5227 46.9055 14.6992 38.0307 14.6992 27.0155C14.6992 16.0525 23.5227 7.12549 34.3584 7.12549Z" fill="#A34AFD"/>
<path d="M30.6484 29.7025L28.1172 30.1027C28.6313 32.9837 30.2529 34.5443 33.1005 34.9044V36.585H35.6713V34.9444C38.2025 34.6243 40.6546 33.0237 40.6546 30.1827C40.6546 26.7014 37.2533 26.1412 34.5639 25.4209C33.4169 25.1008 31.0044 24.7807 31.0044 23.1401C31.0044 21.4995 33.061 21.1794 34.287 21.1794C35.9877 21.1794 37.2929 21.8997 37.5697 23.7403L40.0614 23.3802C39.6263 20.7392 38.2025 19.5788 35.6713 19.1787V17.498H33.1005V19.1386C30.7275 19.4188 28.5522 20.7792 28.5522 23.4602C28.5522 26.9015 32.0327 27.5417 34.643 28.182C35.8691 28.5021 38.0443 28.8222 38.0443 30.4628C38.0443 32.3035 36.0668 32.8637 34.5639 32.8637C32.4282 32.8637 30.9253 31.9433 30.6484 29.7025Z" fill="white"/>
<ellipse cx="15.668" cy="15.3803" rx="14.7261" ry="14.7012" transform="rotate(-90 15.668 15.3803)" fill="url(#paint0_linear)" fill-opacity="0.7" style="mix-blend-mode:multiply"/>
<defs>
<linearGradient id="paint0_linear" x1="15.668" y1="0.679127" x2="15.668" y2="30.0815" gradientUnits="userSpaceOnUse">
<stop stop-color="#6EF3E8"/>
<stop offset="1" stop-color="#6EF3E8" stop-opacity="0.32"/>
</linearGradient>
</defs>
</svg>
