<svg width="20" height="20" viewBox="0 0 20 20" fill="none" xmlns="http://www.w3.org/2000/svg">
<circle cx="10" cy="9.66431" r="9" fill="white" stroke="#E3E4E8"/>
<path d="M12.8836 7.3222C12.5142 7.80986 12.0708 8.03153 11.5979 8.03153C11.3172 8.03153 11.0364 7.94286 10.7704 7.79508L10.0611 7.41086C9.51428 7.11531 8.98228 6.96753 8.46506 6.96753C7.48972 6.96753 6.63261 7.49953 6.08584 8.46008L7.14984 9.33197C7.48972 8.88864 7.94784 8.62264 8.42072 8.62264C8.68672 8.62264 8.95272 8.69653 9.2335 8.84431L9.92806 9.22853C10.4601 9.52408 11.0068 9.67186 11.5241 9.67186C12.5142 9.67186 13.3861 9.13986 13.9181 8.19408L12.8836 7.3222ZM12.8836 10.3073C12.5437 10.7802 12.0856 11.0019 11.6127 11.0019C11.3319 11.0019 11.0364 10.9132 10.7704 10.7654L10.0611 10.3812C9.51428 10.0856 8.99706 9.93786 8.47984 9.93786C7.5045 9.93786 6.63261 10.4699 6.08584 11.4304L7.14984 12.3023C7.5045 11.8442 7.97739 11.6078 8.46506 11.6078C8.71628 11.6078 8.98228 11.6816 9.2335 11.8146L9.92806 12.1989C10.4748 12.5092 10.9921 12.6422 11.5388 12.6422C12.5142 12.6422 13.3713 12.1102 13.9181 11.1644L12.8836 10.3073Z" fill="#464853"/>
</svg>
