<svg width="25" height="25" viewBox="0 0 25 25" fill="none" xmlns="http://www.w3.org/2000/svg">
<path fill-rule="evenodd" clip-rule="evenodd" d="M19.8687 12.401C20.7635 11.9318 21.2441 11.6797 21.6874 11.6797C22.4414 11.6797 23.0039 12.2362 23.0039 12.8772C23.0039 13.5885 22.682 13.9178 19.4214 17.2527C19.2873 17.3899 19.1482 17.5322 19.0039 17.6797C18.9219 17.7637 18.8413 17.8461 18.7623 17.9271C16.0728 20.6799 15.096 21.6797 13.7539 21.6797C12.7394 21.6797 11.7104 21.5517 10.7159 21.4272L10.7065 21.4261C9.73293 21.3049 8.72678 21.1797 7.75393 21.1797C6.40143 21.1797 6.01943 22.4697 5.97993 22.6172C5.90643 22.8957 5.67743 23.1097 5.39443 23.1637C5.34693 23.1727 5.29993 23.1772 5.25243 23.1772C5.01743 23.1772 4.79293 23.0682 4.65043 22.8747L1.15043 18.1277C0.988926 17.9087 0.958426 17.6197 1.07143 17.3717C1.15843 17.1802 3.25143 12.6797 6.91743 12.6797C7.71993 12.6797 8.19793 12.7847 8.70393 12.8962C9.26043 13.0187 9.89343 13.1547 11.2114 13.1752C11.2175 13.1757 11.2234 13.1765 11.2293 13.1774C11.2375 13.1786 11.2455 13.1797 11.2539 13.1797H11.5574H13.7539C14.2114 13.1797 14.6334 13.3222 14.9889 13.5572C15.3019 13.8327 15.5039 14.2312 15.5039 14.6797C15.5039 15.5067 14.8309 16.1797 14.0039 16.1797H10.2539C9.83993 16.1797 9.50393 16.5152 9.50393 16.9297C9.50393 17.3442 9.83993 17.6797 10.2539 17.6797H14.0039C15.6579 17.6797 17.0039 16.3342 17.0039 14.6797C17.0039 14.4457 16.9739 14.2187 16.9234 13.9997C17.5059 13.6427 18.4229 13.1532 19.4144 12.6382C19.5771 12.5539 19.728 12.4747 19.8687 12.401ZM13.0039 11.6772C15.4894 11.6772 17.5039 9.66275 17.5039 7.17725C17.5039 4.69175 15.4894 2.67725 13.0039 2.67725C10.5184 2.67725 8.50393 4.69175 8.50393 7.17725C8.50393 9.66275 10.5184 11.6772 13.0039 11.6772ZM11.0527 8.18599L11.8264 8.06369C11.911 8.74858 12.3704 9.02987 13.0231 9.02987C13.4825 9.02987 14.0869 8.85865 14.0869 8.29606C14.0869 7.84988 13.5605 7.72325 13.1805 7.63183C13.1334 7.62051 13.0886 7.60973 13.0473 7.59894C13.0038 7.58829 12.9596 7.57763 12.9148 7.56684C12.1368 7.37941 11.1857 7.1503 11.1857 6.15579C11.1857 5.33637 11.8506 4.92054 12.5759 4.83493V4.3335H13.3616V4.84716C14.1352 4.96946 14.5704 5.32414 14.7034 6.13133L13.9418 6.2414C13.8572 5.67881 13.4583 5.45867 12.9385 5.45867C12.5638 5.45867 11.9352 5.55651 11.9352 6.05795C11.9352 6.48989 12.4823 6.62236 12.8581 6.71331C12.9185 6.72795 12.9745 6.74151 13.0231 6.75506C13.0913 6.77332 13.1609 6.79123 13.2313 6.80935C14.0104 7.00974 14.8847 7.23465 14.8847 8.21045C14.8847 9.07879 14.1352 9.568 13.3616 9.66584V10.1673H12.5759V9.65361C11.7055 9.54354 11.2099 9.06656 11.0527 8.18599Z" fill="#0019EE"/>
</svg>
