<svg width="51" height="52" viewBox="0 0 51 52" fill="none" xmlns="http://www.w3.org/2000/svg">
<path d="M8.03242 23.4907C8.94371 23.4907 9.6826 22.76 9.68209 21.8594L9.67955 19.1793C9.67751 14.9242 13.1792 11.46 17.485 11.458C21.7907 11.456 25.296 14.9166 25.298 19.1717L25.3005 21.8624C25.3015 22.762 26.0394 23.4912 26.9502 23.4912H28.2093C29.1211 23.4912 29.8595 22.7605 29.859 21.8599L29.8564 19.1692C29.8519 12.4295 24.3013 6.94961 17.4819 6.95313C10.6625 6.95664 5.11754 12.4415 5.1211 19.1813L5.12364 21.8624C5.12465 22.762 5.86253 23.4912 6.7733 23.4912H8.03242V23.4907Z" fill="url(#paint0_linear)" fill-opacity="0.82"/>
<path d="M30.9682 25.0908H4.27044C1.92612 25.0908 0.0242218 26.9754 0.029307 29.2922V47.7108C0.029307 50.0276 1.93629 51.9071 4.28061 51.9071L30.7139 51.8921C33.0583 51.8921 34.9602 50.0125 34.9551 47.6957V29.2721C34.9551 27.0458 33.1905 25.2265 30.9682 25.0908Z" fill="#A34AFD"/>
<path d="M13.9102 41.0495L11.4844 41.433C11.9771 44.1942 13.5312 45.6898 16.2603 46.0349V47.6456H18.7241V46.0733C21.1499 45.7665 23.5 44.2325 23.5 41.5097C23.5 38.1733 20.2402 37.6364 17.6628 36.9462C16.5635 36.6394 14.2514 36.3326 14.2514 34.7603C14.2514 33.1879 16.2224 32.8812 17.3974 32.8812C19.0273 32.8812 20.2781 33.5714 20.5435 35.3355L22.9314 34.9904C22.5145 32.4593 21.1499 31.3472 18.7241 30.9637V29.353H16.2603V30.9253C13.9861 31.1938 11.9013 32.4977 11.9013 35.0671C11.9013 38.3651 15.2369 38.9787 17.7386 39.5923C18.9136 39.899 20.9983 40.2058 20.9983 41.7782C20.9983 43.5422 19.1031 44.0791 17.6628 44.0791C15.6159 44.0791 14.1756 43.1971 13.9102 41.0495Z" fill="white"/>
<path fill-rule="evenodd" clip-rule="evenodd" d="M35.0749 0.751953C43.5544 0.751953 50.3862 7.70461 50.3862 16.243C50.3862 24.822 43.5544 31.734 35.0749 31.734C26.6357 31.734 19.7637 24.822 19.7637 16.243C19.7637 7.70461 26.6357 0.751953 35.0749 0.751953Z" fill="url(#paint1_linear)" fill-opacity="0.8" style="mix-blend-mode:multiply"/>
<defs>
<linearGradient id="paint0_linear" x1="17.49" y1="6.95312" x2="17.49" y2="23.4912" gradientUnits="userSpaceOnUse">
<stop stop-color="#A34AFD"/>
<stop offset="1" stop-color="#A34AFD" stop-opacity="0"/>
</linearGradient>
<linearGradient id="paint1_linear" x1="35.0749" y1="0.751953" x2="35.0749" y2="31.734" gradientUnits="userSpaceOnUse">
<stop stop-color="#6EF3E8"/>
<stop offset="1" stop-color="#6EF3E8" stop-opacity="0.32"/>
</linearGradient>
</defs>
</svg>
