<svg width="107" height="23" viewBox="0 0 107 23" fill="none" xmlns="http://www.w3.org/2000/svg">
<path d="M105.521 15.8322C103.938 15.8322 103.078 14.972 103.078 13.3891V7.47067H106.931V5.13081H103.009V2.06836H102.561L97.9849 6.95452V7.50507H100.325V13.63C100.325 16.5204 102.114 18.3097 104.97 18.3097H107V15.8666H105.521V15.8322Z" fill="#17181C"/>
<path d="M90.8964 18.5849C94.8879 18.5849 97.8815 15.6601 97.8815 11.703C97.8815 7.78027 94.8879 4.82104 90.8964 4.82104C86.8704 4.82104 83.8768 7.74586 83.8768 11.703C83.8768 15.6601 86.8704 18.5849 90.8964 18.5849ZM90.8964 16.0386C88.3845 16.0386 86.6296 14.2493 86.6296 11.703C86.6296 9.19106 88.4189 7.40176 90.8964 7.40176C93.3738 7.40176 95.1631 9.19106 95.1631 11.703C95.1631 14.2149 93.3738 16.0386 90.8964 16.0386Z" fill="#17181C"/>
<path d="M75.7905 4.82104C73.898 4.82104 72.2463 5.54365 71.042 6.74798L70.5258 5.13073H68.7365V22.9549H71.4205V17.002C72.556 17.9999 74.07 18.5849 75.7561 18.5849C79.6788 18.5849 82.5692 15.6257 82.5692 11.703C82.5692 7.78027 79.6788 4.82104 75.7905 4.82104ZM75.5496 16.0386C73.0721 16.0386 71.2484 14.1804 71.2484 11.703C71.2484 9.25988 73.0721 7.40176 75.5496 7.40176C78.0271 7.40176 79.8164 9.25988 79.8164 11.703C79.8164 14.1804 78.0271 16.0386 75.5496 16.0386Z" fill="#17181C"/>
<path d="M34.2924 1.72427C34.2924 2.48128 34.9117 3.13506 35.6688 3.13506C36.4258 3.13506 37.0451 2.51569 37.0451 1.72427C37.0451 0.967258 36.4258 0.313477 35.6688 0.313477C34.9117 0.347886 34.2924 0.967258 34.2924 1.72427ZM34.3268 18.2753H37.0107V5.13082H34.3268V18.2753Z" fill="#17181C"/>
<path d="M47.0582 4.85547C45.1313 4.85547 43.514 5.64689 42.5505 6.98886L42 5.13074H40.1419V18.2408H42.8258V11.2212C42.8258 8.9158 44.271 7.26414 46.3356 7.26414C48.2969 7.26414 49.3636 8.53729 49.3636 10.9116V18.2408H52.0476V10.361C52.082 7.1265 50.1551 4.85547 47.0582 4.85547Z" fill="#17181C"/>
<path d="M25.2429 18.5849C29.2344 18.5849 32.2281 15.6601 32.2281 11.703C32.2281 7.78027 29.2344 4.82104 25.2429 4.82104C21.217 4.82104 18.2234 7.74586 18.2234 11.703C18.2234 15.6601 21.217 18.5849 25.2429 18.5849ZM25.2429 16.0386C22.731 16.0386 20.9762 14.2493 20.9762 11.703C20.9762 9.19106 22.7655 7.40176 25.2429 7.40176C27.7204 7.40176 29.5097 9.19106 29.5097 11.703C29.5097 14.2149 27.7204 16.0386 25.2429 16.0386Z" fill="#17181C"/>
<path d="M8.795 18.5848C12.8897 18.5848 16.0898 16.004 17.0189 12.0125H14.1629C13.3715 14.4212 11.4101 15.9008 8.795 15.9008C5.38845 15.9008 2.87656 13.3545 2.87656 9.81032C2.87656 6.26613 5.38845 3.68541 8.795 3.68541C11.3069 3.68541 13.3027 5.0618 14.1285 7.33283H16.9501C16.0554 3.47895 12.8209 1.00146 8.82941 1.00146C3.80561 1.00146 0.0893788 4.7177 0.0893788 9.81032C0.0549693 14.8685 3.7712 18.5848 8.795 18.5848Z" fill="#17181C"/>
<path d="M60.3402 18.5159C63.7812 18.5159 66.534 16.7266 66.534 13.3201C66.534 9.63826 63.4371 8.91565 60.7876 8.22746C58.7574 7.74573 57.0369 7.33281 57.0369 5.74997C57.0369 4.37359 58.4133 3.58217 60.1338 3.58217C61.9231 3.58217 63.2995 4.51123 63.2995 6.1973H66.0522C66.0522 2.99721 63.85 0.967041 60.1682 0.967041C56.5552 0.967041 54.2153 2.79075 54.2153 5.8532C54.2153 9.36298 57.209 10.0856 59.7897 10.705C61.8199 11.1867 63.6436 11.5996 63.6436 13.3201C63.6436 14.8685 62.1295 15.832 60.3058 15.832C58.3101 15.832 56.7617 14.7653 56.7617 12.8728H53.9401C53.9401 16.3825 56.5552 18.5159 60.3402 18.5159Z" fill="#17181C"/>
</svg>
