<svg width="473" height="116" viewBox="0 0 473 116" fill="none" xmlns="http://www.w3.org/2000/svg">
<circle cx="58" cy="58" r="58" fill="url(#paint0_linear)"/>
<path d="M80.6674 88.2039C80.7447 88.7203 80.7963 89.2463 80.8907 89.7532C81.2943 91.8285 82.5137 92.9188 84.3427 93.2631C84.8751 93.3587 85.4075 93.4257 86 93.5117C85.3646 93.6074 84.7806 93.6552 84.2139 93.7795C82.1444 94.2481 81.0968 95.501 80.7791 97.8632C80.7361 98.1788 80.7018 98.4944 80.6674 98.81C80.6159 98.8674 80.6932 99.0395 80.5301 98.9917C80.4785 98.3701 80.3927 97.7676 80.2724 97.1555C79.8431 95.1184 78.6237 94.076 76.8376 93.7413C76.2623 93.6361 75.6784 93.5787 75 93.483C75.7814 93.4161 76.4598 93.3396 77.1296 93.1866C78.9415 92.7658 79.9977 91.5225 80.3411 89.5141C80.427 89.0168 80.4699 88.5099 80.5386 88.0031C80.6932 87.9744 80.6159 88.1561 80.6674 88.2039Z" fill="white"/>
<path d="M75.5761 52.0927C75.6112 52.3274 75.6347 52.5665 75.6776 52.7969C75.861 53.7402 76.4153 54.2358 77.2467 54.3923C77.4887 54.4358 77.7307 54.4662 78 54.5053C77.7112 54.5488 77.4457 54.5705 77.1881 54.6271C76.2475 54.8401 75.7713 55.4095 75.6269 56.4833C75.6073 56.6267 75.5917 56.7702 75.5761 56.9136C75.5527 56.9397 75.5878 57.018 75.5137 56.9962C75.4902 56.7137 75.4512 56.4398 75.3966 56.1616C75.2014 55.2356 74.6472 54.7618 73.8353 54.6097C73.5738 54.5618 73.3084 54.5358 73 54.4923C73.3552 54.4619 73.6635 54.4271 73.968 54.3575C74.7916 54.1663 75.2717 53.6011 75.4278 52.6882C75.4668 52.4622 75.4863 52.2318 75.5176 52.0014C75.5878 51.9883 75.5527 52.0709 75.5761 52.0927Z" fill="white"/>
<path d="M25.499 70.9513C25.4627 70.2159 25.354 69.4893 25.1546 68.7716C24.7287 67.2122 23.6865 66.2819 22.1005 65.9098C21.4299 65.7503 20.7411 65.6617 20.0524 65.6263C19.9889 65.6085 19.9799 65.582 20.0433 65.5465C20.2155 65.4491 20.4149 65.5554 20.5961 65.4756C21.0402 65.4048 21.4933 65.3605 21.9283 65.2718C23.8587 64.8731 24.9462 63.6859 25.2996 61.8164C25.4084 61.2404 25.499 60.6557 25.499 60.0709C25.5081 60.0443 25.5171 60.0266 25.5262 60C25.5443 60.0177 25.5534 60.0354 25.5715 60.0532C25.6893 60.2481 25.5624 60.4785 25.6531 60.6822C25.6893 61.2582 25.7981 61.8164 25.9431 62.3745C26.4506 64.2086 27.7918 65.0681 29.6134 65.3605C29.8944 65.4048 30.1753 65.4313 30.4653 65.4668C30.6284 65.582 30.8822 65.3605 31 65.6174C30.2297 65.6706 29.4775 65.768 28.7343 65.9718C26.8674 66.4946 26.0427 67.8236 25.7618 69.5868C25.6893 70.0387 25.644 70.4905 25.5805 70.9424C25.5443 71.0222 25.5171 71.0133 25.499 70.9513Z" fill="white"/>
<path d="M41.022 15C41.029 15.5819 41.1203 16.1505 41.2749 16.7123C41.6332 17.9832 42.5394 18.6655 43.8531 18.9196C44.2184 18.9932 44.5908 19.0266 44.9631 19.0735C45.0123 19.1069 45.0123 19.147 44.9631 19.1805C44.38 19.234 43.811 19.3143 43.256 19.4949C42.0266 19.8895 41.4224 20.7657 41.1835 21.9162C41.1063 22.2774 41.0782 22.6386 41.022 22.9998C40.8463 23.0065 40.9798 22.8526 40.9095 22.8058C40.8533 22.3443 40.7761 21.8828 40.6356 21.4346C40.2913 20.3443 39.5186 19.6888 38.3805 19.4012C37.9379 19.2875 37.4883 19.2273 37.0316 19.1872C36.9895 19.147 36.9895 19.1136 37.0316 19.0735C37.5655 19.02 38.0924 18.9464 38.6053 18.7859C39.6239 18.4715 40.2984 17.836 40.6145 16.8595C40.7761 16.3578 40.8814 15.8495 40.8955 15.3211C40.9798 15.2341 40.8323 15.0602 41.022 15Z" fill="white"/>
<path d="M76.022 22C76.029 22.5819 76.1203 23.1505 76.2749 23.7123C76.6332 24.9832 77.5394 25.6655 78.8531 25.9196C79.2184 25.9932 79.5908 26.0266 79.9631 26.0735C80.0123 26.1069 80.0123 26.147 79.9631 26.1805C79.38 26.234 78.811 26.3143 78.256 26.4949C77.0266 26.8895 76.4224 27.7657 76.1835 28.9162C76.1063 29.2774 76.0782 29.6386 76.022 29.9998C75.8463 30.0065 75.9798 29.8526 75.9095 29.8058C75.8533 29.3443 75.7761 28.8828 75.6356 28.4346C75.2913 27.3443 74.5186 26.6888 73.3805 26.4012C72.9379 26.2875 72.4883 26.2273 72.0316 26.1872C71.9895 26.147 71.9895 26.1136 72.0316 26.0735C72.5655 26.02 73.0924 25.9464 73.6053 25.7859C74.6239 25.4715 75.2984 24.836 75.6145 23.8595C75.7761 23.3578 75.8814 22.8495 75.8955 22.3211C75.9798 22.2341 75.8323 22.0602 76.022 22Z" fill="white"/>
<path d="M54.3894 115.932C54.2966 115.943 54.2155 115.914 54.1401 115.874C53.9314 115.833 53.7285 115.833 53.5198 115.874C53.4328 115.856 53.3516 115.833 53.2647 115.816C53.1139 115.781 52.969 115.775 52.8182 115.816C52.7545 115.798 52.6907 115.775 52.6269 115.758C52.4762 115.723 52.3312 115.723 52.1805 115.758C52.1167 115.74 52.053 115.717 51.9834 115.7C51.8558 115.665 51.7283 115.665 51.6007 115.7C51.5486 115.7 51.5022 115.682 51.4732 115.636C51.3399 115.607 51.2123 115.601 51.079 115.642C51.0152 115.624 50.9514 115.601 50.8876 115.584C50.7949 115.543 50.7021 115.543 50.6152 115.584C50.5688 115.566 50.5224 115.543 50.4818 115.526C50.3717 115.491 50.2615 115.491 50.1571 115.526C50.1108 115.508 50.0644 115.485 50.018 115.468C49.9252 115.433 49.8325 115.427 49.7397 115.474C49.6991 115.45 49.6585 115.433 49.618 115.41C49.5252 115.375 49.4324 115.375 49.3397 115.41C49.2933 115.392 49.2469 115.375 49.2063 115.352C49.1194 115.311 49.0266 115.317 48.9338 115.352C48.0468 115.172 47.154 115.039 46.2669 114.859C44.9045 114.581 43.5595 114.256 42.226 113.885C39.6867 113.183 37.2053 112.302 34.7877 111.247C32.3585 110.192 30.0105 108.98 27.7494 107.606C25.5405 106.261 23.4302 104.765 21.4184 103.142C19.5168 101.606 17.7253 99.9533 16.0266 98.1967C14.6294 96.753 13.3249 95.2341 12.09 93.6513C10.6754 91.8367 9.37675 89.9466 8.18245 87.9871C7.06931 86.155 6.07792 84.2592 5.17349 82.3112C4.57054 81.0183 4.01397 79.7023 3.52117 78.363C3.48059 78.2471 3.41681 78.1369 3.42261 78.0036C5.17929 77.9108 6.93596 77.9514 8.69264 78.05C11.2784 78.1949 13.8467 78.5138 16.3861 79.0182C26.271 80.9662 35.066 85.181 42.742 91.6917C50.447 98.2256 56.0649 106.25 59.6246 115.705C59.6362 115.74 59.6478 115.781 59.6594 115.816C59.7116 115.978 59.6014 115.966 59.5029 115.966C59.3116 115.966 59.1202 115.966 58.9289 115.966C58.7086 115.984 58.4825 115.932 58.2622 115.995C57.9317 115.995 57.6071 115.995 57.2766 115.995C56.7142 115.949 56.1577 115.949 55.5953 115.995C55.5199 115.995 55.4388 115.995 55.3634 115.995C55.2996 115.926 55.2069 115.943 55.1257 115.932C54.8764 115.891 54.6329 115.897 54.3894 115.932Z" fill="url(#paint1_linear)"/>
<path d="M55.7302 115.994C55.9505 115.878 56.1882 115.936 56.4143 115.941C56.7448 115.953 57.0869 115.872 57.4115 115.994C56.8492 115.994 56.2926 115.994 55.7302 115.994Z" fill="#C5C8CA"/>
<path d="M59.0407 115.948C59.2204 115.942 59.4001 115.942 59.5799 115.936C59.6726 115.936 59.777 115.954 59.7944 115.814C59.8466 115.907 59.9219 115.948 60.0263 115.948C60.0495 115.959 60.0553 115.971 60.0437 115.983C60.0379 115.994 60.0263 115.994 60.0205 115.994C59.69 115.994 59.3654 115.994 59.0349 115.994C58.9943 115.977 59.0001 115.959 59.0407 115.948Z" fill="#9DA4A8"/>
<path d="M59.04 115.948C59.04 115.965 59.0342 115.982 59.0342 115.994C58.8197 115.994 58.611 115.994 58.3965 115.994C58.6052 115.89 58.8255 115.948 59.04 115.948Z" fill="#B7BBBD"/>
<path d="M60.0204 115.995C60.0204 115.977 60.0204 115.966 60.0262 115.948C60.1595 115.948 60.2987 115.948 60.432 115.948C60.432 115.966 60.4262 115.983 60.432 116C60.2929 115.995 60.1537 115.995 60.0204 115.995Z" fill="#CBCFD1"/>
<path d="M81.2163 4.86516C81.3728 4.91154 81.4772 4.80718 81.5815 4.73181C82.6657 4.00131 83.8078 3.38097 84.9616 2.77222C85.0775 2.84759 85.1587 2.94615 85.234 3.0621C85.924 4.13466 86.7066 5.13764 87.5705 6.07686C89.4605 8.12921 91.6752 9.72935 94.1798 10.9295C96.064 11.8339 98.041 12.431 100.105 12.7499C100.256 12.7731 100.418 12.7731 100.534 12.8948C100.464 13.979 100.389 15.0574 100.227 16.1299C100.14 16.6807 100.047 17.2315 99.9484 17.7764C99.9368 17.8576 99.931 17.9272 99.9658 17.9967C99.815 18.1127 99.8498 18.2924 99.8208 18.4432C98.8932 22.7798 97.2525 26.8381 95.0726 30.6819C93.171 34.0271 90.9389 37.1521 88.6488 40.2306C86.2196 43.4946 83.6455 46.6369 80.967 49.6923C80.8974 49.7735 80.8337 49.8604 80.7699 49.9416C80.7583 50.0749 80.6771 50.1677 80.596 50.2662C80.0104 50.9562 79.3958 51.6287 78.7813 52.2954C77.2913 53.9071 75.8013 55.5015 74.236 57.0205C73.5982 57.6408 72.9547 58.2438 72.2938 58.8467C72.201 58.9337 72.1025 59.0148 71.9633 59.0032C71.5981 59.2873 71.2386 59.5656 70.8734 59.8497C70.711 59.9657 70.6009 59.8265 70.4907 59.7569C69.6791 59.2352 68.8674 58.7134 68.0615 58.18C67.7079 57.9365 67.3252 57.7278 66.9774 57.4611C66.5541 57.1886 66.1251 56.9219 65.7019 56.6378C60.434 53.1259 68.218 58.3037 59.7825 52.7882C59.3999 52.5505 59.023 52.3012 58.652 52.0519C57.8345 51.5417 57.0287 51.0083 56.2228 50.4808C55.614 50.0865 55.0053 49.6981 54.4023 49.2922C54.2806 49.2111 54.1183 49.1473 54.1299 48.9502C54.2342 48.5038 54.3386 48.0632 54.4429 47.6167C54.3502 47.408 54.4545 47.2167 54.5183 47.0312C54.7966 46.1499 55.1155 45.2803 55.4343 44.4107C56.4315 41.7032 57.5505 39.0479 58.739 36.4158C58.8317 36.2186 58.8897 35.9925 59.0984 35.8708C59.8811 34.2359 60.6464 32.5951 61.4638 30.9776C64.0148 25.9337 66.7744 20.9999 69.9689 16.3328C73.0011 11.9324 76.642 8.10022 81.083 5.06227C81.1467 5.02169 81.2859 5.0101 81.2163 4.86516Z" fill="url(#paint2_linear)"/>
<path d="M71.9694 59.0032C72.8912 58.1393 73.8188 57.2813 74.7116 56.3885C76.7176 54.3883 78.6482 52.3243 80.5208 50.2024C80.5962 50.1155 80.6832 50.0401 80.7643 49.9531C81.6398 50.672 82.0862 51.6518 82.3877 52.707C82.8341 54.2839 82.9268 55.8957 82.8863 57.5248C82.8457 58.9742 82.7007 60.4178 82.4456 61.844C82.1905 63.2876 81.5644 64.5979 80.8803 65.8792C78.5728 70.2216 75.7378 74.2045 72.5665 77.9556C72.1259 78.4774 71.6621 78.9875 71.1287 79.4224C70.3924 80.0253 69.7083 79.9963 69.0532 79.3064C68.398 78.6165 68.0676 77.7469 67.7951 76.854C67.6675 76.4366 67.5806 76.0134 67.5226 75.5844C67.4646 75.1843 67.5168 74.7959 67.6501 74.4132C68.1313 73.0392 68.8444 71.7753 69.5575 70.5172C70.6185 68.633 71.749 66.7894 72.9434 64.9805C73.2564 64.5051 73.3086 64.0413 73.21 63.5253C73.0013 62.36 72.6013 61.2527 72.2824 60.1163C72.1839 59.7453 72.0737 59.3742 71.9694 59.0032Z" fill="url(#paint3_linear)"/>
<path d="M59.1102 35.8941C58.5073 37.2739 57.8927 38.6422 57.3072 40.0336C56.2694 42.5092 55.2838 45.0022 54.4895 47.5647C54.4837 47.5937 54.4606 47.6169 54.449 47.6401C52.8604 47.9068 51.2429 47.9937 49.6775 48.388C49.2369 48.4981 48.9122 48.7242 48.6513 49.1185C47.0222 51.6172 45.3525 54.0928 43.4683 56.4119C43.1494 56.8003 42.8132 57.1713 42.4711 57.5424C42.0131 58.0468 41.4623 58.3946 40.7782 58.5396C39.6651 58.7773 38.5519 58.899 37.4214 58.6555C37.2011 58.6091 36.9982 58.528 36.801 58.4236C36.2039 58.1048 35.9604 57.583 36.0995 56.922C36.2445 56.2495 36.5228 55.6176 36.8126 54.9972C38.9867 50.4229 41.5841 46.1037 44.6858 42.0918C46.2511 40.0684 48.2455 38.6364 50.4892 37.4942C52.1241 36.6652 53.7938 35.9405 55.6085 35.6158C56.8028 35.4013 57.9797 35.3723 59.1102 35.8941Z" fill="url(#paint4_linear)"/>
<path d="M30.0638 66.1752C30.1914 66.1172 30.3305 66.1346 30.4697 66.1752C30.3363 66.1752 30.1972 66.1752 30.0638 66.1752Z" fill="#606149"/>
<path d="M74.2357 92.1314C74.2357 92.0213 74.2357 91.9053 74.2357 91.7952C74.2473 91.7952 74.2589 91.7952 74.2647 91.7952C74.2647 91.9169 74.2647 92.0329 74.2647 92.1546C74.2531 92.1488 74.2415 92.1372 74.2357 92.1314Z" fill="#555948"/>
<path d="M22.4047 66.1819C22.2713 66.1993 22.138 66.2109 21.993 66.1645C22.1438 66.1181 22.2771 66.1297 22.4047 66.1471C22.4047 66.1587 22.4047 66.1703 22.4047 66.1819Z" fill="#62634A"/>
<path d="M26.2603 70.3958C26.1907 70.303 26.2313 70.1987 26.2081 70.0537C26.3241 70.1987 26.2487 70.2972 26.2603 70.3958Z" fill="#5C5E49"/>
<path d="M26.2662 62.4363H26.2488H26.2314C26.2314 62.3261 26.2314 62.2102 26.2314 62.0247C26.2836 62.2102 26.2836 62.3203 26.2662 62.4363Z" fill="#81794F"/>
<path d="M22.4055 66.1812C22.4055 66.1696 22.4055 66.158 22.4055 66.1464C22.4983 66.1464 22.591 66.1464 22.6838 66.1406C22.6838 66.158 22.6838 66.1696 22.6838 66.187C22.591 66.187 22.4983 66.1812 22.4055 66.1812Z" fill="#C9AD5B"/>
<path d="M100.539 12.9017C99.8146 12.8727 99.1073 12.7046 98.4058 12.5307C92.7184 11.1102 88.2716 7.94474 85.0771 3.02837C85.0249 2.9472 84.9496 2.87763 84.9612 2.77327C86.6367 1.96161 88.3586 1.2543 90.1616 0.773097C91.8835 0.309288 93.6228 -0.00378259 95.4142 0.0483959C95.8665 0.0599911 96.3187 0.123764 96.7651 0.210728C97.3217 0.326681 97.7565 0.610766 98.0927 1.06878C98.7479 1.96741 99.1653 2.98778 99.5016 4.03715C100.302 6.55331 100.586 9.14485 100.563 11.7712C100.551 12.148 100.545 12.5249 100.539 12.9017Z" fill="#DF3030"/>
<path d="M54.5248 115.93C54.7683 115.843 55.0176 115.843 55.2611 115.93C55.0118 115.93 54.7683 115.93 54.5248 115.93Z" fill="#C5C8CA"/>
<path d="M53.6547 115.872C53.8634 115.785 54.0663 115.785 54.275 115.872C54.0663 115.872 53.8576 115.872 53.6547 115.872Z" fill="#BBBFC2"/>
<path d="M52.3213 115.756C52.472 115.675 52.617 115.675 52.7677 115.756C52.617 115.756 52.4662 115.756 52.3213 115.756Z" fill="#CACDCE"/>
<path d="M52.9526 115.814C53.1034 115.727 53.2483 115.733 53.3991 115.814C53.2483 115.814 53.1034 115.814 52.9526 115.814Z" fill="#BFC3C5"/>
<path d="M51.2191 115.641C51.3467 115.554 51.48 115.565 51.6134 115.635C51.48 115.641 51.3467 115.641 51.2191 115.641Z" fill="#BCC0C2"/>
<path d="M51.7412 115.699C51.8688 115.617 51.9963 115.617 52.1239 115.699C51.9963 115.699 51.8688 115.699 51.7412 115.699Z" fill="#BDC1C4"/>
<path d="M50.2919 115.525C50.402 115.443 50.5064 115.449 50.6165 115.525C50.5064 115.525 50.402 115.525 50.2919 115.525Z" fill="#BDC1C4"/>
<path d="M49.0746 115.351C49.1673 115.275 49.2543 115.275 49.3471 115.351C49.2543 115.351 49.1615 115.351 49.0746 115.351Z" fill="#B8BCBF"/>
<path d="M49.8799 115.472C49.9726 115.391 50.0654 115.397 50.1582 115.466C50.0596 115.466 49.9668 115.466 49.8799 115.472Z" fill="#C4C7C9"/>
<path d="M50.7495 115.583C50.8423 115.507 50.935 115.507 51.022 115.583C50.935 115.583 50.8423 115.583 50.7495 115.583Z" fill="#C7CACC"/>
<path d="M49.4797 115.408C49.5725 115.333 49.6653 115.338 49.758 115.408C49.6653 115.408 49.5725 115.408 49.4797 115.408Z" fill="#C1C5C7"/>
<path d="M32.3656 97.2161C32.2381 97.3031 32.0931 97.2625 31.954 97.2683C32.0873 97.1755 32.2323 97.2161 32.3656 97.2161Z" fill="#CBCBCB"/>
<path d="M91.7736 23.3195C91.7388 28.3402 87.6747 32.3754 82.6772 32.3522C77.668 32.3232 73.6213 28.2417 73.6503 23.2557C73.6851 18.2292 77.7608 14.2057 82.7873 14.2405C87.7675 14.2752 91.8142 18.3626 91.7736 23.3195Z" fill="#17181C"/>
<path fill-rule="evenodd" clip-rule="evenodd" d="M56.2572 77.608C59.8807 73.8396 63.2259 69.845 66.1131 65.4794C66.1351 65.3203 66.022 65.2494 65.9164 65.1833C65.9104 65.1796 65.9045 65.1758 65.8986 65.1721C65.6998 65.0456 65.5033 64.9169 65.3076 64.7887C65.1894 64.7112 65.0715 64.634 64.9536 64.5576C64.855 64.4938 64.7565 64.4358 64.6347 64.4416C64.6165 64.4448 64.5992 64.4491 64.5827 64.4542C61.8876 62.6304 59.1448 60.8751 56.4027 59.1204C55.3474 58.445 54.2921 57.7697 53.2397 57.0906C53.2376 57.068 53.2328 57.0448 53.225 57.0207L53.225 57.0207C53.2076 56.9859 53.1902 56.9511 53.1613 56.9279C52.7869 56.6295 52.382 56.3869 51.9752 56.1432C51.9474 56.1265 51.9195 56.1098 51.8916 56.0931C51.8278 56.0525 51.7466 56.0293 51.6771 56.0931C49.3522 59.7166 47.41 63.543 45.6823 67.4796C44.088 71.1147 42.6734 74.8136 41.7226 78.6748C41.3399 80.2285 41.0327 81.8055 41.0269 83.4172C41.0211 84.1883 41.079 84.9478 41.3921 85.6609C41.7458 86.4726 42.3545 86.89 43.2474 86.8958C43.688 86.8958 44.1112 86.8146 44.5286 86.6813C45.9722 86.2233 47.2361 85.4232 48.4536 84.5535C51.306 82.5186 53.8396 80.1242 56.2572 77.608Z" fill="url(#paint5_linear)"/>
<path d="M82.5319 17.8639C85.3669 17.777 87.8946 19.8641 88.1266 22.8847C88.3585 25.9458 86.0742 28.5316 83.0131 28.7287C80.1316 28.9142 77.4879 26.6183 77.3024 23.7659C77.0937 20.5772 79.3084 18.0727 82.5319 17.8639Z" fill="url(#paint6_linear)"/>
<path d="M60.2524 52.9858C60.4089 52.9395 60.4553 52.7887 60.5422 52.6728C62.0728 50.5972 63.6845 48.5797 65.5514 46.794C66.2355 46.1389 66.9544 45.5185 67.7835 45.0547C68.0559 44.904 68.3342 44.7764 68.6473 44.73C69.1865 44.6431 69.5169 44.8692 69.6445 45.4026C69.7546 45.8838 69.7025 46.365 69.6097 46.8404C69.3024 48.4753 68.6763 50.0001 67.9922 51.5075C67.2849 53.0728 66.479 54.5918 65.6267 56.0818C65.5688 56.1803 65.4876 56.2673 65.4818 56.389C65.5108 56.5398 65.4296 56.6499 65.3601 56.7659C64.2875 58.5747 63.1454 60.3372 61.9337 62.0533C61.8235 62.2098 61.7192 62.3722 61.6148 62.5345C61.1162 63.1491 60.664 63.7984 60.177 64.4245C58.9015 66.0653 57.5333 67.6248 56.0143 69.0452C55.3534 69.6656 54.6403 70.2337 53.817 70.6338C53.6257 70.7265 53.4286 70.7961 53.2141 70.8367C52.6111 70.9468 52.1937 70.6802 52.0545 70.0772C51.9502 69.6366 51.9908 69.1902 52.0545 68.7553C52.2053 67.7466 52.5299 66.79 52.8952 65.8391C53.7532 63.5839 54.8606 61.4562 56.0549 59.3632C56.1245 59.2473 56.194 59.1313 56.2752 59.0212C56.6578 58.2965 57.1043 57.6065 57.5333 56.9166C58.3218 55.6585 59.1392 54.4237 60.0089 53.2177C60.0784 53.1308 60.1364 53.0264 60.2524 52.9858Z" fill="url(#paint7_linear)"/>
<path fill-rule="evenodd" clip-rule="evenodd" d="M51.6832 56.0996C52.1818 56.4185 52.6746 56.7315 53.1732 57.0446C53.1977 57.0733 53.218 57.1041 53.2379 57.1346C53.2745 57.1903 53.3103 57.2448 53.3703 57.2823C53.5645 57.4041 53.7558 57.5316 53.9471 57.6592C54.1385 57.7867 54.3298 57.9143 54.524 58.036C54.6233 58.1022 54.7279 58.1579 54.8527 58.1132C54.8465 58.2276 54.9288 58.2877 55.0111 58.3425C55.2262 58.4967 55.4501 58.6375 55.6747 58.7787C55.8133 58.866 55.9523 58.9533 56.0895 59.044C56.1764 59.0962 56.2634 59.1252 56.362 59.0788C56.4663 58.8817 56.5707 58.6846 56.6866 58.4991C57.6838 56.8757 58.6926 55.264 59.7941 53.7102C59.8387 53.6466 59.8876 53.5851 59.9368 53.5234C60.0665 53.3604 60.1975 53.1958 60.2521 52.9855C60.1403 52.9114 60.0291 52.8365 59.9178 52.7616C59.5157 52.4907 59.1137 52.22 58.6868 51.9884C58.6871 51.9917 58.6873 51.9951 58.6875 51.9984C58.6853 51.9953 58.6832 51.9922 58.6809 51.9891C58.6756 51.9848 58.6703 51.9804 58.6649 51.976C58.6056 51.9274 58.5418 51.8751 58.478 51.8326C58.0443 51.5501 57.6097 51.2685 57.175 50.9868C56.4765 50.5341 55.7774 50.0811 55.0806 49.6237C54.9827 49.5579 54.8822 49.4959 54.7816 49.4338C54.5543 49.2937 54.3267 49.1534 54.1298 48.9685C54.1124 48.9642 54.0943 48.9623 54.0763 48.9604C54.046 48.9572 54.0161 48.9541 53.9906 48.9395C53.2195 48.5163 52.1238 48.7076 51.515 49.6932C51.1248 50.3318 50.7132 50.9569 50.3019 51.5815C50.1083 51.8755 49.9147 52.1694 49.7236 52.4645C49.0743 53.4675 49.2946 54.5111 50.2918 55.1662C50.4358 55.2616 50.5827 55.3537 50.7298 55.446C51.0561 55.6506 51.3834 55.8558 51.6832 56.0996Z" fill="#DF3030"/>
<path fill-rule="evenodd" clip-rule="evenodd" d="M61.7314 62.1351C61.6454 62.2276 61.5555 62.3243 61.5859 62.4762C61.5801 62.598 61.667 62.6675 61.7482 62.7313C61.9163 62.8415 62.0859 62.9487 62.2555 63.056C62.4251 63.1632 62.5947 63.2705 62.7628 63.3807C62.8366 63.4281 62.9153 63.4708 63.0031 63.4301C63.033 63.5536 63.1276 63.6165 63.2225 63.6795C63.2353 63.688 63.2481 63.6965 63.2608 63.7052C63.3854 63.789 63.5119 63.8679 63.6384 63.9468C63.818 64.0588 63.9975 64.1707 64.171 64.2965C64.316 64.4067 64.4783 64.4763 64.658 64.5053C64.8002 64.5983 64.9443 64.6884 65.0885 64.7786C65.4384 64.9973 65.7889 65.2165 66.1132 65.4793C66.3019 65.549 66.4673 65.6593 66.6321 65.7692C66.7003 65.8147 66.7684 65.8601 66.8379 65.9025C67.7655 66.4938 68.8091 66.2967 69.4237 65.3807C70.0904 64.3893 70.7339 63.3805 71.3775 62.3717C71.8355 61.6528 71.7543 60.7774 71.2035 60.1744C71.1253 60.0876 71.0439 60.0072 70.9617 59.926C70.9341 59.8989 70.9065 59.8716 70.8789 59.844C70.8394 59.8208 70.8 59.7995 70.7606 59.7781C70.7015 59.7461 70.6423 59.7141 70.5832 59.6758C69.9918 59.2932 69.4005 58.912 68.8091 58.5308C68.2178 58.1496 67.6264 57.7684 67.035 57.3858C67.027 57.3852 67.0192 57.3849 67.0116 57.3848C66.513 57.0356 66.003 56.6981 65.4761 56.3945C65.4686 56.4035 65.4607 56.4125 65.4528 56.4216C65.4299 56.4477 65.4063 56.4746 65.3891 56.5047C64.2644 58.3947 63.0817 60.2441 61.812 62.0414C61.7887 62.0735 61.7602 62.104 61.7314 62.1351Z" fill="#DF3030"/>
<path d="M467.548 76.5425C462.716 76.5425 460.09 73.9165 460.09 69.0847V51.018H471.855V43.8753H459.88V34.5269H458.515L444.544 49.4424V51.123H451.687V69.82C451.687 78.6433 457.149 84.1053 465.867 84.1053H472.065V76.6476H467.548V76.5425Z" fill="#17181C"/>
<path d="M422.906 84.9453C435.091 84.9453 444.229 76.017 444.229 63.9375C444.229 51.9631 435.091 42.9297 422.906 42.9297C410.616 42.9297 401.478 51.858 401.478 63.9375C401.478 76.017 410.616 84.9453 422.906 84.9453ZM422.906 77.1725C415.238 77.1725 409.881 71.7104 409.881 63.9375C409.881 56.2697 415.343 50.8076 422.906 50.8076C430.469 50.8076 435.931 56.2697 435.931 63.9375C435.931 71.6054 430.469 77.1725 422.906 77.1725Z" fill="#17181C"/>
<path d="M376.794 42.9297C371.017 42.9297 365.975 45.1355 362.298 48.8119L360.723 43.875H355.261V98.2853H363.454V80.1135C366.92 83.1597 371.542 84.9453 376.689 84.9453C388.663 84.9453 397.486 75.912 397.486 63.9375C397.486 51.9631 388.663 42.9297 376.794 42.9297ZM376.058 77.1725C368.496 77.1725 362.929 71.5003 362.929 63.9375C362.929 56.4797 368.496 50.8076 376.058 50.8076C383.621 50.8076 389.083 56.4797 389.083 63.9375C389.083 71.5003 383.621 77.1725 376.058 77.1725Z" fill="#17181C"/>
<path d="M250.116 33.4765C250.116 35.7874 252.007 37.7831 254.317 37.7831C256.628 37.7831 258.519 35.8924 258.519 33.4765C258.519 31.1657 256.628 29.1699 254.317 29.1699C252.007 29.275 250.116 31.1657 250.116 33.4765ZM250.221 84.0004H258.414V43.8754H250.221V84.0004Z" fill="#17181C"/>
<path d="M289.085 43.0347C283.203 43.0347 278.266 45.4506 275.325 49.5471L273.644 43.875H267.972V83.8949H276.165V62.4669C276.165 55.4293 280.577 50.3874 286.879 50.3874C292.866 50.3874 296.123 54.2738 296.123 61.5215V83.8949H304.316V59.8409C304.421 49.9672 298.538 43.0347 289.085 43.0347Z" fill="#17181C"/>
<path d="M222.491 84.9453C234.676 84.9453 243.814 76.017 243.814 63.9375C243.814 51.9631 234.676 42.9297 222.491 42.9297C210.202 42.9297 201.063 51.858 201.063 63.9375C201.063 76.017 210.202 84.9453 222.491 84.9453ZM222.491 77.1725C214.824 77.1725 209.467 71.7104 209.467 63.9375C209.467 56.2697 214.929 50.8076 222.491 50.8076C230.054 50.8076 235.516 56.2697 235.516 63.9375C235.516 71.6054 230.054 77.1725 222.491 77.1725Z" fill="#17181C"/>
<path d="M172.282 84.9455C184.782 84.9455 194.55 77.0676 197.387 64.883H188.668C186.252 72.2358 180.265 76.7524 172.282 76.7524C161.883 76.7524 154.215 68.9796 154.215 58.1605C154.215 47.3415 161.883 39.4636 172.282 39.4636C179.95 39.4636 186.042 43.6651 188.563 50.5977H197.176C194.445 38.8333 184.572 31.2705 172.387 31.2705C157.051 31.2705 145.707 42.6147 145.707 58.1605C145.602 73.6013 156.946 84.9455 172.282 84.9455Z" fill="#17181C"/>
<path d="M329.63 84.7352C340.134 84.7352 348.537 79.2732 348.537 68.8743C348.537 57.6351 339.083 55.4293 330.995 53.3285C324.798 51.858 319.546 50.5975 319.546 45.7657C319.546 41.5642 323.748 39.1483 329 39.1483C334.462 39.1483 338.663 41.9843 338.663 47.1312H347.066C347.066 37.3626 340.344 31.1653 329.105 31.1653C318.076 31.1653 310.933 36.7324 310.933 46.0808C310.933 56.7948 320.071 59.0007 327.949 60.8914C334.147 62.3619 339.714 63.6224 339.714 68.8743C339.714 73.6011 335.092 76.5422 329.525 76.5422C323.433 76.5422 318.706 73.286 318.706 67.5088H310.093C310.093 78.2228 318.076 84.7352 329.63 84.7352Z" fill="#17181C"/>
<defs>
<linearGradient id="paint0_linear" x1="78.3784" y1="29.7838" x2="20.3784" y2="119.135" gradientUnits="userSpaceOnUse">
<stop stop-color="#17181C"/>
<stop offset="1" stop-color="#050F62"/>
</linearGradient>
<linearGradient id="paint1_linear" x1="25.0812" y1="76.8109" x2="53.2974" y2="117.568" gradientUnits="userSpaceOnUse">
<stop stop-color="#EFEFEF"/>
<stop offset="1" stop-color="#B7B7BD"/>
</linearGradient>
<linearGradient id="paint2_linear" x1="75.2436" y1="26.6484" x2="87.7842" y2="45.4592" gradientUnits="userSpaceOnUse">
<stop stop-color="#E5E5E5"/>
<stop offset="1" stop-color="#B7B8C1"/>
</linearGradient>
<linearGradient id="paint3_linear" x1="87.7838" y1="59.5675" x2="72.1081" y2="61.1351" gradientUnits="userSpaceOnUse">
<stop stop-color="#EC4F4F"/>
<stop offset="1" stop-color="#A91919"/>
</linearGradient>
<linearGradient id="paint4_linear" x1="66.4294" y1="42.9692" x2="43.5691" y2="47.3573" gradientUnits="userSpaceOnUse">
<stop stop-color="#EC4F4F"/>
<stop offset="1" stop-color="#A91919"/>
</linearGradient>
<linearGradient id="paint5_linear" x1="59.5675" y1="61.1349" x2="37.6215" y2="90.9187" gradientUnits="userSpaceOnUse">
<stop stop-color="#F2A518"/>
<stop offset="1" stop-color="#F4E23E"/>
</linearGradient>
<linearGradient id="paint6_linear" x1="79.946" y1="17.2433" x2="83.0811" y2="28.2162" gradientUnits="userSpaceOnUse">
<stop stop-color="#CED1EC"/>
<stop offset="1" stop-color="white"/>
</linearGradient>
<linearGradient id="paint7_linear" x1="58.0003" y1="51.7298" x2="65.8381" y2="58.0001" gradientUnits="userSpaceOnUse">
<stop stop-color="#B71E1E"/>
<stop offset="0.442708" stop-color="#DF3030"/>
<stop offset="1" stop-color="#C51D1D"/>
</linearGradient>
</defs>
</svg>
