<svg width="37" height="38" viewBox="0 0 37 38" fill="none" xmlns="http://www.w3.org/2000/svg">
<path d="M18.6207 0.868652C8.61808 0.868652 0.5 8.98674 0.5 18.9894C0.5 28.992 8.61808 37.1101 18.6207 37.1101C28.6234 37.1101 36.7415 28.992 36.7415 18.9894C36.7415 8.98674 28.6234 0.868652 18.6207 0.868652Z" fill="#A34AFD"/>
<path d="M13.9913 10.6646V19.6646C13.9913 20.2146 14.4413 20.6646 14.9913 20.6646H16.9913V27.8146C16.9913 28.3246 17.6613 28.5046 17.9213 28.0646L23.1113 19.1646C23.5013 18.4946 23.0213 17.6646 22.2513 17.6646H19.9913L22.4813 11.0146C22.7313 10.3646 22.2513 9.66455 21.5513 9.66455H14.9913C14.4413 9.66455 13.9913 10.1146 13.9913 10.6646Z" fill="white"/>
</svg>
