<svg width="48" height="53" viewBox="0 0 48 53" fill="none" xmlns="http://www.w3.org/2000/svg">
<circle cx="18.756" cy="34.0861" r="14.588" fill="white"/>
<path d="M18.7555 15.9658C8.75285 15.9658 0.634766 24.0839 0.634766 34.0865C0.634766 44.0892 8.75285 52.2073 18.7555 52.2073C28.7581 52.2073 36.8762 44.0892 36.8762 34.0865C36.8762 24.0839 28.7581 15.9658 18.7555 15.9658Z" fill="#A34AFD"/>
<path fill-rule="evenodd" clip-rule="evenodd" d="M31.9402 0.46582C40.4196 0.46582 47.2514 7.41848 47.2514 15.9568C47.2514 24.5358 40.4196 31.4478 31.9402 31.4478C23.5009 31.4478 16.6289 24.5358 16.6289 15.9568C16.6289 7.41848 23.5009 0.46582 31.9402 0.46582Z" fill="url(#paint0_linear)" fill-opacity="0.8" style="mix-blend-mode:multiply"/>
<path d="M18.756 22.5938C21.4989 22.5938 23.7131 24.8079 23.7131 27.5509C23.7131 30.2938 21.4989 32.508 18.756 32.508C16.013 32.508 13.7988 30.2938 13.7988 27.5509C13.7988 24.8079 16.013 22.5938 18.756 22.5938Z" fill="white"/>
<path d="M18.7561 46.0575C14.6251 46.0575 10.9734 43.9424 8.8418 40.7368C8.89137 37.4486 15.4513 35.6475 18.7561 35.6475C22.0443 35.6475 28.6208 37.4486 28.6704 40.7368C26.5388 43.9424 22.887 46.0575 18.7561 46.0575Z" fill="white"/>
<path d="M16.6035 46.5399L18.3175 40.0563C18.3713 39.8527 18.5555 39.7109 18.7661 39.7109C18.9771 39.7109 19.1616 39.8534 19.215 40.0575L20.9105 46.5414C21.005 46.903 20.7322 47.2564 20.3584 47.2564H17.1552C16.7808 47.2564 16.5078 46.9019 16.6035 46.5399Z" fill="#A34AFD"/>
<path d="M19.6149 36.6945H17.8856C17.455 36.6945 17.1796 37.1531 17.3818 37.5332L18.0334 38.7579C18.1325 38.9442 18.3263 39.0605 18.5372 39.0605H18.9475C19.1565 39.0605 19.3487 38.9464 19.4486 38.7629L20.116 37.5382C20.3232 37.1579 20.0479 36.6945 19.6149 36.6945Z" fill="#A34AFD"/>
<defs>
<linearGradient id="paint0_linear" x1="31.9402" y1="0.46582" x2="31.9402" y2="31.4478" gradientUnits="userSpaceOnUse">
<stop stop-color="#6EF3E8"/>
<stop offset="1" stop-color="#6EF3E8" stop-opacity="0.32"/>
</linearGradient>
</defs>
</svg>
