<svg width="22" height="22" viewBox="0 0 22 22" fill="none" xmlns="http://www.w3.org/2000/svg">
<rect x="0.25" y="0.414307" width="21.5" height="21.5" rx="10.75" fill="#F7931A"/>
<path fill-rule="evenodd" clip-rule="evenodd" d="M11.0379 16.8145L10.0525 16.5687L10.4553 14.9548C10.1901 14.891 9.92495 14.8193 9.6691 14.7476L9.2649 16.3687L8.27662 16.1265L8.6844 14.4875L8.42425 14.4194H8.41565L8.32142 14.3948L8.32127 14.3948C8.20922 14.3655 8.0966 14.3361 7.98135 14.3076L6.69995 13.9858L7.18943 12.8564C7.19152 12.8564 7.24975 12.8717 7.33224 12.8933L7.33226 12.8933C7.53263 12.946 7.87615 13.0362 7.9061 13.0362C7.94512 13.0453 7.98501 13.0501 8.02507 13.0506C8.17816 13.0466 8.31219 12.9467 8.35975 12.8012L9.46485 8.36285C9.49426 8.07853 9.29002 7.82324 9.00618 7.78952C8.99902 7.77662 8.55253 7.67199 8.28952 7.61179L8.55182 6.55829L9.91348 6.89799V6.903C10.1027 6.9503 10.2948 6.99474 10.5427 7.05064L10.9455 5.43097L11.9316 5.67607L11.5353 7.2642L11.5812 7.27495C11.8263 7.33085 12.0793 7.3889 12.3244 7.45054L12.72 5.87244L13.7039 6.1204L13.2997 7.74007C14.8047 8.25822 15.4311 8.97919 15.2777 10.0083C15.2339 10.7206 14.7172 11.3147 14.0178 11.4567C14.4713 11.6349 14.8283 11.9965 15.0008 12.4521C15.1734 12.9077 15.1454 13.4151 14.9237 13.8489C14.6462 14.8041 13.725 15.4239 12.7357 15.321C12.3022 15.3131 11.8704 15.2651 11.4457 15.1776L11.0372 16.8124L11.0379 16.8145ZM10.5298 11.3929L9.98799 13.5644L10.1779 13.6138C10.7088 13.7725 11.257 13.8659 11.8105 13.8919C12.4956 13.8919 12.9041 13.6482 13.0238 13.1681C13.0905 12.9311 13.0552 12.677 12.9263 12.4672C12.5446 11.8484 11.3942 11.5889 10.7776 11.4498L10.7763 11.4495C10.6796 11.428 10.5986 11.4094 10.5319 11.3929H10.5298ZM10.7771 10.3997L11.268 8.43033C11.3246 8.44466 11.3941 8.46043 11.473 8.47763C11.9761 8.58943 12.9128 8.79941 13.2388 9.32544C13.3597 9.52487 13.3917 9.76575 13.327 9.98979C13.2166 10.4384 12.854 10.6663 12.252 10.6663C11.8057 10.6468 11.3636 10.5712 10.9362 10.4413L10.9147 10.4356L10.7771 10.3997Z" fill="white"/>
</svg>
