<svg width="64" height="62" viewBox="0 0 64 62" fill="none" xmlns="http://www.w3.org/2000/svg">
<path fill-rule="evenodd" clip-rule="evenodd" d="M58.2149 22.8155L58.2324 22.8153H58.2149V22.8155ZM58.2149 22.8155C57.9933 22.8199 57.7734 22.9095 57.6199 23.084L56.2374 24.4994C55.8874 24.8578 55.3449 24.8578 54.9949 24.4994L53.6124 23.084C53.2624 22.7257 52.7199 22.7257 52.3699 23.084L50.9874 24.4994C50.6374 24.8578 50.0949 24.8578 49.7449 24.4994L48.3624 23.084C48.0124 22.7257 47.4699 22.7257 47.1199 23.084L45.7374 24.4994C45.3874 24.8578 44.8449 24.8578 44.4949 24.4994L43.1124 23.084C42.7624 22.7257 42.2199 22.7257 41.8699 23.084L40.4874 24.4994C40.1374 24.8578 39.5949 24.8578 39.2449 24.4994L37.8449 23.0661C37.4949 22.7078 36.9524 22.7078 36.6024 23.0661L35.2199 24.4994C34.8699 24.8578 34.3274 24.8578 33.9774 24.4994L32.5949 23.0661C32.2449 22.7078 31.7024 22.7078 31.3524 23.0661L29.9699 24.4994C29.6199 24.8578 29.0774 24.8578 28.7274 24.4994L27.3449 23.0661C27.1874 22.9049 26.9599 22.8153 26.7324 22.8153V57.914C26.9599 57.914 27.1874 57.8244 27.3449 57.6453L28.7274 56.2299C29.0774 55.8715 29.6199 55.8715 29.9699 56.2299L31.3524 57.6453C31.7024 58.0036 32.2449 58.0036 32.5949 57.6453L33.9774 56.2299C34.3274 55.8715 34.8699 55.8715 35.2199 56.2299L36.6024 57.6453C36.9524 58.0036 37.4949 58.0036 37.8449 57.6453L39.2274 56.2299C39.5774 55.8715 40.1199 55.8715 40.4699 56.2299L41.8524 57.6453C42.2024 58.0036 42.7449 58.0036 43.0949 57.6453L44.4774 56.2299C44.8274 55.8715 45.3699 55.8715 45.7199 56.2299L47.1024 57.6453C47.4524 58.0036 47.9949 58.0036 48.3449 57.6453L49.7274 56.2299C50.0774 55.8715 50.6199 55.8715 50.9699 56.2299L52.3524 57.6453C52.7024 58.0036 53.2449 58.0036 53.5949 57.6453L54.9774 56.2299C55.3274 55.8715 55.8699 55.8715 56.2199 56.2299L57.6024 57.6453C57.7774 57.8244 58.0049 57.914 58.2149 57.914V22.8155ZM33.7324 49.314H51.2324C52.1949 49.314 52.9824 48.5078 52.9824 47.5224C52.9824 46.5369 52.1949 45.7307 51.2324 45.7307H33.7324C32.7699 45.7307 31.9824 46.5369 31.9824 47.5224C31.9824 48.5078 32.7699 49.314 33.7324 49.314ZM51.2324 42.1474H33.7324C32.7699 42.1474 31.9824 41.3411 31.9824 40.3557C31.9824 39.3703 32.7699 38.564 33.7324 38.564H51.2324C52.1949 38.564 52.9824 39.3703 52.9824 40.3557C52.9824 41.3411 52.1949 42.1474 51.2324 42.1474ZM33.7324 34.9807H51.2324C52.1949 34.9807 52.9824 34.1744 52.9824 33.189C52.9824 32.2036 52.1949 31.3974 51.2324 31.3974H33.7324C32.7699 31.3974 31.9824 32.2036 31.9824 33.189C31.9824 34.1744 32.7699 34.9807 33.7324 34.9807Z" fill="#0019EE"/>
<ellipse cx="21.5646" cy="21.6463" rx="20.9181" ry="20.9181" transform="rotate(-90 21.5646 21.6463)" fill="url(#paint0_linear)" style="mix-blend-mode:multiply"/>
<defs>
<linearGradient id="paint0_linear" x1="21.5646" y1="0.728199" x2="21.5646" y2="42.5645" gradientUnits="userSpaceOnUse">
<stop stop-color="#6EF3E8"/>
<stop offset="1" stop-color="white" stop-opacity="0.32"/>
</linearGradient>
</defs>
</svg>
