<svg width="67" height="60" viewBox="0 0 67 60" fill="none" xmlns="http://www.w3.org/2000/svg">
<path fill-rule="evenodd" clip-rule="evenodd" d="M22.6406 35.7041C22.6406 24.6641 31.6006 15.7041 42.6406 15.7041C53.6806 15.7041 62.6406 24.6641 62.6406 35.7041C62.6406 46.7441 53.6806 55.7041 42.6406 55.7041C31.6006 55.7041 22.6406 46.7441 22.6406 35.7041ZM30.0406 37.1041L37.2206 44.2841C38.0006 45.0641 39.2806 45.0641 40.0406 44.2841L55.2206 29.1041C56.0006 28.3241 56.0006 27.0641 55.2206 26.2841C54.4406 25.5041 53.1806 25.5041 52.4006 26.2841L38.6406 40.0441L32.8606 34.2841C32.0806 33.5041 30.8206 33.5041 30.0406 34.2841C29.6661 34.6578 29.4557 35.1651 29.4557 35.6941C29.4557 36.2231 29.6661 36.7304 30.0406 37.1041Z" fill="#0019EE"/>
<ellipse cx="21.7228" cy="21.6224" rx="20.9181" ry="20.9181" transform="rotate(-90 21.7228 21.6224)" fill="url(#paint0_linear)" style="mix-blend-mode:multiply"/>
<defs>
<linearGradient id="paint0_linear" x1="21.7228" y1="0.704273" x2="21.7228" y2="42.5405" gradientUnits="userSpaceOnUse">
<stop stop-color="#6EF3E8"/>
<stop offset="1" stop-color="white" stop-opacity="0.32"/>
</linearGradient>
</defs>
</svg>
