<svg width="122" height="31" viewBox="0 0 122 31" fill="none" xmlns="http://www.w3.org/2000/svg">
<g clip-path="url(#clip0)">
<path d="M32.1407 11.1628H44.444V13.4996H39.6064V26.6354H36.9462V13.4996H32.13V11.1628H32.1407ZM43.9184 15.4323H46.1924V17.5943H46.2353C46.3104 17.2885 46.4498 16.9937 46.6536 16.7098C46.8574 16.4259 47.1042 16.1529 47.3938 15.9236C47.6834 15.6834 48.0052 15.4978 48.3591 15.3449C48.7131 15.203 49.0778 15.1265 49.4425 15.1265C49.7214 15.1265 49.9252 15.1374 50.0325 15.1484C50.1397 15.1593 50.247 15.1811 50.365 15.192V17.5724C50.1934 17.5397 50.0218 17.5178 49.8394 17.496C49.6571 17.4742 49.4854 17.4632 49.3138 17.4632C48.9062 17.4632 48.52 17.5506 48.1553 17.7144C47.7906 17.8782 47.4796 18.1293 47.2114 18.446C46.9433 18.7736 46.7287 19.1667 46.5678 19.6471C46.4069 20.1275 46.3318 20.6735 46.3318 21.2959V26.6245H43.9077V15.4323H43.9184ZM61.5098 26.6354H59.1285V25.074H59.0856C58.7853 25.6418 58.3455 26.0895 57.7555 26.428C57.1656 26.7664 56.5649 26.9412 55.9535 26.9412C54.5054 26.9412 53.4542 26.5808 52.8106 25.8492C52.167 25.1176 51.8453 24.0148 51.8453 22.5407V15.4323H54.2694V22.3005C54.2694 23.2832 54.4518 23.982 54.8272 24.3861C55.1919 24.7901 55.7175 24.9975 56.3826 24.9975C56.8974 24.9975 57.3157 24.9211 57.659 24.7573C58.0022 24.5935 58.2811 24.3861 58.4849 24.1131C58.6995 23.851 58.8496 23.5234 58.9462 23.1522C59.0427 22.7809 59.0856 22.3769 59.0856 21.9401V15.4432H61.5098V26.6354ZM65.6395 23.043C65.7146 23.7637 65.9827 24.2659 66.444 24.5608C66.9159 24.8447 67.4737 24.9975 68.128 24.9975C68.3533 24.9975 68.6107 24.9757 68.9003 24.9429C69.19 24.9102 69.4688 24.8337 69.7155 24.7355C69.973 24.6372 70.1768 24.4843 70.3484 24.2878C70.5093 24.0912 70.5844 23.8401 70.5737 23.5234C70.5629 23.2068 70.4449 22.9447 70.2304 22.7482C70.0159 22.5407 69.7477 22.3878 69.4152 22.2568C69.0827 22.1367 68.7073 22.0275 68.2782 21.9401C67.8491 21.8528 67.4201 21.7545 66.9803 21.6562C66.5298 21.558 66.09 21.4269 65.6717 21.285C65.2533 21.143 64.8779 20.9465 64.5454 20.6953C64.2129 20.4551 63.9447 20.1385 63.7516 19.7563C63.5478 19.3741 63.4513 18.9046 63.4513 18.3368C63.4513 17.7253 63.6015 17.223 63.8911 16.8081C64.1807 16.3932 64.5561 16.0656 64.9959 15.8144C65.4464 15.5633 65.9398 15.3886 66.4869 15.2794C67.0339 15.1811 67.5595 15.1265 68.0529 15.1265C68.6214 15.1265 69.1685 15.192 69.6834 15.3122C70.1982 15.4323 70.6702 15.6288 71.0885 15.9127C71.5069 16.1857 71.8501 16.546 72.129 16.9828C72.4079 17.4196 72.5795 17.9546 72.6546 18.577H70.1232C70.0052 17.9874 69.7477 17.5834 69.3294 17.3868C68.9111 17.1793 68.4284 17.0811 67.892 17.0811C67.7204 17.0811 67.5166 17.092 67.2806 17.1248C67.0447 17.1575 66.8301 17.2121 66.6156 17.2885C66.4118 17.365 66.2402 17.4851 66.09 17.638C65.9506 17.7908 65.8755 17.9874 65.8755 18.2385C65.8755 18.5443 65.9827 18.7845 66.1865 18.9701C66.3903 19.1557 66.6585 19.3086 66.991 19.4396C67.3235 19.5597 67.699 19.6689 68.128 19.7563C68.5571 19.8436 68.9969 19.9419 69.4474 20.0402C69.8872 20.1385 70.3162 20.2695 70.7453 20.4114C71.1743 20.5534 71.5498 20.7499 71.8823 21.0011C72.2148 21.2522 72.483 21.558 72.6868 21.9292C72.8906 22.3005 72.9978 22.77 72.9978 23.316C72.9978 23.982 72.8477 24.5389 72.5473 25.0085C72.247 25.4671 71.8608 25.8492 71.3889 26.1331C70.9169 26.417 70.3806 26.6354 69.8014 26.7664C69.2221 26.8975 68.6429 26.963 68.0744 26.963C67.3772 26.963 66.7336 26.8866 66.1436 26.7228C65.5537 26.559 65.0388 26.3188 64.6098 26.0021C64.1807 25.6745 63.8374 25.2705 63.5907 24.7901C63.344 24.3096 63.2153 23.7309 63.1939 23.0648H65.6395V23.043ZM73.6414 15.4323H75.4757V12.0691H77.8998V15.4323H80.088V17.2776H77.8998V23.2614C77.8998 23.5234 77.9106 23.7418 77.932 23.9384C77.9535 24.124 78.0071 24.2878 78.0822 24.4188C78.1573 24.5498 78.2753 24.6481 78.4362 24.7136C78.5971 24.7791 78.8009 24.8119 79.0798 24.8119C79.2514 24.8119 79.423 24.8119 79.5946 24.801C79.7662 24.7901 79.9379 24.7682 80.1095 24.7246V26.6354C79.8413 26.6682 79.5732 26.69 79.3265 26.7228C79.069 26.7555 78.8116 26.7664 78.5434 26.7664C77.8998 26.7664 77.385 26.7009 76.9988 26.5808C76.6127 26.4607 76.3016 26.2751 76.0871 26.0349C75.8618 25.7946 75.7224 25.4998 75.6366 25.1395C75.5615 24.7791 75.5078 24.3642 75.4971 23.9056V17.2995H73.6629V15.4323H73.6414ZM81.8043 15.4323H84.0997V16.95H84.1427C84.4859 16.2949 84.9579 15.8363 85.5693 15.5524C86.1807 15.2685 86.835 15.1265 87.5537 15.1265C88.4225 15.1265 89.1734 15.2794 89.817 15.5961C90.4605 15.9018 90.9969 16.3276 91.4259 16.8736C91.855 17.4196 92.166 18.0529 92.3806 18.7736C92.5951 19.4942 92.7024 20.2695 92.7024 21.0884C92.7024 21.8419 92.6058 22.5735 92.4128 23.2723C92.2197 23.982 91.9301 24.6044 91.5439 25.1504C91.1578 25.6964 90.6643 26.1222 90.0637 26.4498C89.463 26.7774 88.7658 26.9412 87.9506 26.9412C87.5966 26.9412 87.2426 26.9084 86.8886 26.8429C86.5346 26.7774 86.1914 26.6682 85.8696 26.5262C85.5478 26.3843 85.2368 26.1986 84.9686 25.9693C84.6897 25.74 84.4644 25.478 84.2714 25.1832H84.2285V30.7738H81.8043V15.4323ZM90.2782 21.0448C90.2782 20.5425 90.2138 20.0511 90.0851 19.5707C89.9564 19.0902 89.7633 18.6753 89.5059 18.304C89.2485 17.9328 88.9267 17.638 88.5512 17.4196C88.1651 17.2012 87.7253 17.0811 87.2319 17.0811C86.2129 17.0811 85.4406 17.4414 84.9257 18.1621C84.4108 18.8828 84.1534 19.8436 84.1534 21.0448C84.1534 21.6126 84.2177 22.1367 84.3572 22.6171C84.4966 23.0976 84.6897 23.5125 84.9686 23.8619C85.2368 24.2113 85.5585 24.4843 85.934 24.6809C86.3094 24.8883 86.7492 24.9866 87.2426 24.9866C87.8004 24.9866 88.2616 24.8665 88.6478 24.6372C89.0339 24.4079 89.345 24.1022 89.5917 23.7418C89.8384 23.3706 90.0207 22.9556 90.128 22.4861C90.2246 22.0166 90.2782 21.5361 90.2782 21.0448ZM94.5581 11.1628H96.9822V13.4996H94.5581V11.1628ZM94.5581 15.4323H96.9822V26.6354H94.5581V15.4323ZM99.149 11.1628H101.573V26.6354H99.149V11.1628ZM109.007 26.9412C108.127 26.9412 107.344 26.7883 106.658 26.4935C105.971 26.1986 105.392 25.7837 104.909 25.2705C104.437 24.7464 104.072 24.124 103.826 23.4033C103.579 22.6827 103.45 21.8855 103.45 21.0229C103.45 20.1712 103.579 19.385 103.826 18.6644C104.072 17.9437 104.437 17.3213 104.909 16.7972C105.381 16.2731 105.971 15.869 106.658 15.5742C107.344 15.2794 108.127 15.1265 109.007 15.1265C109.886 15.1265 110.669 15.2794 111.356 15.5742C112.042 15.869 112.621 16.284 113.104 16.7972C113.576 17.3213 113.941 17.9437 114.187 18.6644C114.434 19.385 114.563 20.1712 114.563 21.0229C114.563 21.8855 114.434 22.6827 114.187 23.4033C113.941 24.124 113.576 24.7464 113.104 25.2705C112.632 25.7946 112.042 26.1986 111.356 26.4935C110.669 26.7883 109.886 26.9412 109.007 26.9412ZM109.007 24.9866C109.543 24.9866 110.015 24.8665 110.412 24.6372C110.809 24.4079 111.13 24.1022 111.388 23.7309C111.645 23.3596 111.828 22.9338 111.956 22.4643C112.074 21.9947 112.139 21.5143 112.139 21.0229C112.139 20.5425 112.074 20.073 111.956 19.5925C111.838 19.1121 111.645 18.6971 111.388 18.3259C111.13 17.9546 110.809 17.6598 110.412 17.4305C110.015 17.2012 109.543 17.0811 109.007 17.0811C108.47 17.0811 107.998 17.2012 107.601 17.4305C107.205 17.6598 106.883 17.9655 106.625 18.3259C106.368 18.6971 106.186 19.1121 106.057 19.5925C105.939 20.073 105.874 20.5425 105.874 21.0229C105.874 21.5143 105.939 21.9947 106.057 22.4643C106.175 22.9338 106.368 23.3596 106.625 23.7309C106.883 24.1022 107.205 24.4079 107.601 24.6372C107.998 24.8774 108.47 24.9866 109.007 24.9866ZM115.271 15.4323H117.105V12.0691H119.529V15.4323H121.717V17.2776H119.529V23.2614C119.529 23.5234 119.54 23.7418 119.561 23.9384C119.583 24.124 119.637 24.2878 119.712 24.4188C119.787 24.5498 119.905 24.6481 120.066 24.7136C120.226 24.7791 120.43 24.8119 120.709 24.8119C120.881 24.8119 121.052 24.8119 121.224 24.801C121.396 24.7901 121.567 24.7682 121.739 24.7246V26.6354C121.471 26.6682 121.203 26.69 120.956 26.7228C120.698 26.7555 120.441 26.7664 120.173 26.7664C119.529 26.7664 119.014 26.7009 118.628 26.5808C118.242 26.4607 117.931 26.2751 117.716 26.0349C117.491 25.7946 117.352 25.4998 117.266 25.1395C117.191 24.7791 117.137 24.3642 117.127 23.9056V17.2995H115.292V15.4323H115.271Z" fill="#293854"/>
<path d="M29.3088 11.1636H18.1962L14.7637 0.397217L11.3205 11.1636L0.207886 11.1527L9.20739 17.8134L5.7642 28.5689L14.7637 21.9191L23.7525 28.5689L20.32 17.8134L29.3088 11.1636Z" fill="#00B67A"/>
<path d="M21.093 20.2472L20.3207 17.8123L14.7644 21.9179L21.093 20.2472Z" fill="#005128"/>
</g>
<defs>
<clipPath id="clip0">
<rect width="121.509" height="30.3774" fill="white" transform="translate(0.207886 0.397217)"/>
</clipPath>
</defs>
</svg>
