<svg width="25" height="25" viewBox="0 0 25 25" fill="none" xmlns="http://www.w3.org/2000/svg">
<circle cx="12.5" cy="12.1643" r="12" fill="#E3E4E8"/>
<path fill-rule="evenodd" clip-rule="evenodd" d="M12.5001 6.83099C11.0267 6.83099 9.83341 8.02433 9.83341 9.49766C9.83341 10.971 11.0267 12.1643 12.5001 12.1643C13.9734 12.1643 15.1667 10.971 15.1667 9.49766C15.1667 8.02433 13.9734 6.83099 12.5001 6.83099ZM13.9001 9.49766C13.9001 8.72433 13.2734 8.09766 12.5001 8.09766C11.7267 8.09766 11.1001 8.72433 11.1001 9.49766C11.1001 10.271 11.7267 10.8977 12.5001 10.8977C13.2734 10.8977 13.9001 10.271 13.9001 9.49766ZM16.5667 15.4977C16.5667 15.071 14.4801 14.0977 12.5001 14.0977C10.5201 14.0977 8.43341 15.071 8.43341 15.4977V16.231H16.5667V15.4977ZM7.16675 15.4977C7.16675 13.7243 10.7201 12.831 12.5001 12.831C14.2801 12.831 17.8334 13.7243 17.8334 15.4977V16.831C17.8334 17.1977 17.5334 17.4977 17.1667 17.4977H7.83341C7.46675 17.4977 7.16675 17.1977 7.16675 16.831V15.4977Z" fill="#464853"/>
</svg>
