<svg width="55" height="55" viewBox="0 0 55 55" fill="none" xmlns="http://www.w3.org/2000/svg">
<g clip-path="url(#clip0)">
<path d="M34.8123 38.9719L27.0452 46.4711L19.2782 38.9719L34.8123 38.9719Z" fill="#A34AFD"/>
<path d="M37.4907 44.3297L27.0454 54.5072L16.6001 44.3297L37.4907 44.3297Z" fill="url(#paint0_linear)" fill-opacity="0.7" style="mix-blend-mode:multiply"/>
<g filter="url(#filter0_d)">
<path fill-rule="evenodd" clip-rule="evenodd" d="M27.0459 0.471436C36.8424 0.471436 44.7353 8.31608 44.7353 17.9498C44.7353 27.6295 36.8424 35.4283 27.0459 35.4283C17.2958 35.4283 9.35645 27.6295 9.35645 17.9498C9.35645 8.31608 17.2958 0.471436 27.0459 0.471436ZM19.7101 21.4822L22.6815 21.0235C23.0065 23.5925 24.7708 24.6476 27.278 24.6476C29.0423 24.6476 31.3638 24.0054 31.3638 21.8951C31.3638 20.0142 28.8102 19.6472 27.3709 19.2802C24.3066 18.5462 20.2208 17.8122 20.2208 13.867C20.2208 10.7933 22.7744 9.23358 25.5601 8.91245V7.03157H28.578V8.95833C31.5495 9.41708 33.2209 10.7475 33.7316 13.7752L30.8066 14.1881C30.4816 12.0778 28.9494 11.2521 26.953 11.2521C25.5137 11.2521 23.0994 11.6191 23.0994 13.5C23.0994 15.3808 25.9316 15.7478 27.278 16.1148C30.4352 16.9406 34.4281 17.5828 34.4281 21.574C34.4281 24.8311 31.5495 26.6661 28.578 27.0331V28.914H25.5601V26.9872C22.2173 26.5744 20.3137 24.7852 19.7101 21.4822Z" fill="#A34AFD"/>
</g>
<g filter="url(#filter1_d)">
<path fill-rule="evenodd" clip-rule="evenodd" d="M19.6882 21.4818L22.6597 21.023C22.9847 23.592 24.749 24.6472 27.2561 24.6472C29.0204 24.6472 31.3419 24.0049 31.3419 21.8947C31.3419 20.0138 28.7883 19.6468 27.349 19.2798C24.2847 18.5458 20.1989 17.8118 20.1989 13.8665C20.1989 10.7929 22.7525 9.23313 25.5383 8.91201V7.03113H28.5562V8.95788C31.5276 9.41663 33.199 10.747 33.7098 13.7748L30.7847 14.1876C30.4597 12.0774 28.9276 11.2516 26.9311 11.2516C25.4918 11.2516 23.0775 11.6186 23.0775 13.4995C23.0775 15.3804 25.9097 15.7474 27.2561 16.1144C30.4133 16.9401 34.4062 17.5824 34.4062 21.5735C34.4062 24.8307 31.5276 26.6657 28.5562 27.0327V28.9135H25.5383V26.9868C22.1954 26.5739 20.2918 24.7848 19.6882 21.4818Z" fill="white"/>
</g>
</g>
<defs>
<filter id="filter0_d" x="-100.616" y="-21.523" width="255.323" height="254.901" filterUnits="userSpaceOnUse" color-interpolation-filters="sRGB">
<feFlood flood-opacity="0" result="BackgroundImageFix"/>
<feColorMatrix in="SourceAlpha" type="matrix" values="0 0 0 0 0 0 0 0 0 0 0 0 0 0 0 0 0 0 127 0"/>
<feOffset dy="87.9778"/>
<feGaussianBlur stdDeviation="54.9861"/>
<feColorMatrix type="matrix" values="0 0 0 0 0 0 0 0 0 0 0 0 0 0 0 0 0 0 0.04 0"/>
<feBlend mode="normal" in2="BackgroundImageFix" result="effect1_dropShadow"/>
<feBlend mode="normal" in="SourceGraphic" in2="effect1_dropShadow" result="shape"/>
</filter>
<filter id="filter1_d" x="-90.284" y="-14.9633" width="234.662" height="241.827" filterUnits="userSpaceOnUse" color-interpolation-filters="sRGB">
<feFlood flood-opacity="0" result="BackgroundImageFix"/>
<feColorMatrix in="SourceAlpha" type="matrix" values="0 0 0 0 0 0 0 0 0 0 0 0 0 0 0 0 0 0 127 0"/>
<feOffset dy="87.9778"/>
<feGaussianBlur stdDeviation="54.9861"/>
<feColorMatrix type="matrix" values="0 0 0 0 0 0 0 0 0 0 0 0 0 0 0 0 0 0 0.04 0"/>
<feBlend mode="normal" in2="BackgroundImageFix" result="effect1_dropShadow"/>
<feBlend mode="normal" in="SourceGraphic" in2="effect1_dropShadow" result="shape"/>
</filter>
<linearGradient id="paint0_linear" x1="27.0454" y1="54.5072" x2="27.0454" y2="44.3297" gradientUnits="userSpaceOnUse">
<stop stop-color="#6EF3E8"/>
<stop offset="1" stop-color="#6EF3E8" stop-opacity="0.32"/>
</linearGradient>
<clipPath id="clip0">
<rect width="54.0357" height="54.0357" fill="white" transform="translate(0.027832 0.471313)"/>
</clipPath>
</defs>
</svg>
