<svg width="50" height="49" viewBox="0 0 50 49" fill="none" xmlns="http://www.w3.org/2000/svg">
<g clip-path="url(#clip0)">
<path fill-rule="evenodd" clip-rule="evenodd" d="M25.45 12.6559C35.2624 12.6559 43.1681 20.7014 43.1681 30.582C43.1681 40.5095 35.2624 48.508 25.45 48.508C15.6841 48.508 7.73193 40.5095 7.73193 30.582C7.73193 20.7014 15.6841 12.6559 25.45 12.6559Z" fill="#A34AFD"/>
<path d="M20.979 33.523L17.8857 34.0142C18.5141 37.5513 20.4957 39.4672 23.9756 39.9093V41.9725H27.1173V39.9584C30.2105 39.5654 33.2072 37.6004 33.2072 34.1125C33.2072 29.8386 29.0506 29.1508 25.7639 28.2666C24.3623 27.8736 21.414 27.4806 21.414 25.4665C21.414 23.4523 23.9273 23.0593 25.4256 23.0593C27.5039 23.0593 29.0989 23.9436 29.4372 26.2033L32.4822 25.7612C31.9505 22.5189 30.2105 21.0943 27.1173 20.6031V18.5398H23.9756V20.5539C21.0757 20.8978 18.4174 22.5681 18.4174 25.8595C18.4174 30.0842 22.6707 30.8702 25.8606 31.6562C27.3589 32.0492 30.0172 32.4422 30.0172 34.4564C30.0172 36.7161 27.6006 37.4039 25.7639 37.4039C23.154 37.4039 21.3174 36.274 20.979 33.523Z" fill="white"/>
<circle cx="15.4839" cy="14.5939" r="14.5347" transform="rotate(-90 15.4839 14.5939)" fill="url(#paint0_linear)" fill-opacity="0.7" style="mix-blend-mode:multiply"/>
</g>
<defs>
<linearGradient id="paint0_linear" x1="15.4839" y1="0.0592299" x2="15.4839" y2="29.1285" gradientUnits="userSpaceOnUse">
<stop stop-color="#6EF3E8"/>
<stop offset="1" stop-color="#6EF3E8" stop-opacity="0.3"/>
</linearGradient>
<clipPath id="clip0">
<rect width="48.4489" height="48.4489" fill="white" transform="translate(0.949219 0.0592041)"/>
</clipPath>
</defs>
</svg>
