<svg width="50" height="51" viewBox="0 0 50 51" fill="none" xmlns="http://www.w3.org/2000/svg">
<g clip-path="url(#clip0)">
<path fill-rule="evenodd" clip-rule="evenodd" d="M25.2853 13.6644C35.4119 13.6644 43.5707 21.9675 43.5707 32.1644C43.5707 42.4098 35.4119 50.6644 25.2853 50.6644C15.2068 50.6644 7 42.4098 7 32.1644C7 21.9675 15.2068 13.6644 25.2853 13.6644Z" fill="#0019EE"/>
<path d="M20.6713 35.1995L17.479 35.7065C18.1274 39.3568 20.1725 41.334 23.7639 41.7903V43.9196H27.0061V41.841C30.1984 41.4354 33.2909 39.4075 33.2909 35.8079C33.2909 31.3972 29.0013 30.6874 25.6094 29.7748C24.1629 29.3693 21.1202 28.9637 21.1202 26.8851C21.1202 24.8064 23.714 24.4009 25.2603 24.4009C27.4051 24.4009 29.0512 25.3134 29.4003 27.6455L32.5427 27.1892C31.9941 23.8432 30.1984 22.3729 27.0061 21.866V19.7366H23.7639V21.8153C20.7711 22.1701 18.0277 23.8939 18.0277 27.2906C18.0277 31.6507 22.4171 32.4618 25.7092 33.273C27.2555 33.6786 29.9989 34.0842 29.9989 36.1628C29.9989 38.4949 27.5049 39.2047 25.6094 39.2047C22.9159 39.2047 21.0205 38.0386 20.6713 35.1995Z" fill="white"/>
<circle cx="15" cy="15.6643" r="15" transform="rotate(-90 15 15.6643)" fill="url(#paint0_linear)" fill-opacity="0.7" style="mix-blend-mode:multiply"/>
</g>
<defs>
<linearGradient id="paint0_linear" x1="15" y1="0.664308" x2="15" y2="30.6643" gradientUnits="userSpaceOnUse">
<stop stop-color="#6EF3E8"/>
<stop offset="1" stop-color="#6EF3E8" stop-opacity="0.3"/>
</linearGradient>
<clipPath id="clip0">
<rect width="50" height="50" fill="white" transform="translate(0 0.664307)"/>
</clipPath>
</defs>
</svg>
