<svg width="49" height="49" viewBox="0 0 49 49" fill="none" xmlns="http://www.w3.org/2000/svg">
<path d="M15.343 18.5246C16.2515 18.5246 16.9881 17.7962 16.9876 16.8983L16.985 14.2264C16.983 9.98433 20.474 6.53083 24.7665 6.52882C29.0591 6.52682 32.5536 9.97681 32.5556 14.2189L32.5582 16.9013C32.5592 17.7982 33.2948 18.5251 34.2028 18.5251H35.458C36.367 18.5251 37.1032 17.7967 37.1027 16.8988L37.1001 14.2164C37.0956 7.49729 31.562 2.03421 24.7635 2.03772C17.965 2.04123 12.437 7.50931 12.4406 14.2284L12.4431 16.9013C12.4441 17.7982 13.1797 18.5251 14.0877 18.5251H15.343V18.5246Z" fill="url(#paint0_linear)" fill-opacity="0.7" style="mix-blend-mode:multiply"/>
<path d="M38.2096 20.2067H11.5936C9.25649 20.2067 7.36042 22.0855 7.36549 24.3952V42.7574C7.36549 45.067 9.26663 46.9408 11.6038 46.9408L37.9561 46.9258C40.2932 46.9258 42.1893 45.052 42.1842 42.7423V24.3751C42.1842 22.1556 40.4251 20.3419 38.2096 20.2067Z" fill="#A34AFD"/>
<path d="M26.7335 35.2404C27.7431 34.594 28.4123 33.4626 28.4123 32.1748C28.4123 30.166 26.7838 28.5375 24.7749 28.5375C22.7661 28.5375 21.1376 30.166 21.1376 32.1748C21.1376 33.4626 21.8068 34.594 22.8163 35.2404V38.6101H26.7335V35.2404Z" fill="white"/>
<defs>
<linearGradient id="paint0_linear" x1="24.7716" y1="2.03772" x2="24.7716" y2="18.5251" gradientUnits="userSpaceOnUse">
<stop stop-color="#6EF3E8"/>
<stop offset="1" stop-color="#6EF3E8" stop-opacity="0.32"/>
</linearGradient>
</defs>
</svg>
