<svg width="51" height="51" viewBox="0 0 51 51" fill="none" xmlns="http://www.w3.org/2000/svg">
<g clip-path="url(#clip0)">
<path d="M26.2275 13.1601C15.8719 13.1601 7.47754 21.4759 7.47754 31.7346C7.47754 41.9934 15.8719 50.3092 26.2275 50.3092C36.5832 50.3092 44.9775 41.9934 44.9775 31.7346C44.9775 21.4759 36.5832 13.1601 26.2275 13.1601ZM31.0763 39.1645L24.9019 33.0479C24.5494 32.6987 24.3525 32.2269 24.3525 31.7346V22.4474C24.3525 21.4221 25.1925 20.5899 26.2275 20.5899C27.2625 20.5899 28.1025 21.4221 28.1025 22.4474V30.9657L33.7275 36.538C34.4588 37.2624 34.4588 38.44 33.7275 39.1645C32.9963 39.8889 31.8075 39.8889 31.0763 39.1645Z" fill="#0019EE"/>
<ellipse cx="15.5044" cy="15.2578" rx="15" ry="15" transform="rotate(-90 15.5044 15.2578)" fill="url(#paint0_linear)" fill-opacity="0.7" style="mix-blend-mode:multiply"/>
</g>
<defs>
<linearGradient id="paint0_linear" x1="15.5044" y1="0.257814" x2="15.5044" y2="30.2578" gradientUnits="userSpaceOnUse">
<stop stop-color="#6EF3E8"/>
<stop offset="1" stop-color="#6EF3E8" stop-opacity="0.3"/>
</linearGradient>
<clipPath id="clip0">
<rect width="50" height="50" fill="white" transform="translate(0.504395 0.257812)"/>
</clipPath>
</defs>
</svg>
