<svg width="50" height="51" viewBox="0 0 50 51" fill="none" xmlns="http://www.w3.org/2000/svg">
<path d="M40.9568 36.5534L21.9216 47.5281C21.5704 47.7306 21.1717 47.8373 20.7658 47.8373C20.3599 47.8373 19.9612 47.7306 19.61 47.5281L0.575497 36.5538C0.400471 36.4529 0.255167 36.3079 0.154157 36.1335C0.0531479 35.959 -1.51861e-05 35.7611 3.25395e-09 35.5597C1.51926e-05 35.3583 0.0532079 35.1605 0.154244 34.986C0.25528 34.8115 0.400606 34.6666 0.575647 34.5657L19.6191 23.59C19.9704 23.3875 20.3691 23.2809 20.775 23.281C21.1809 23.2811 21.5796 23.3878 21.9309 23.5904L40.957 34.5655C41.1319 34.6664 41.2772 34.8114 41.3782 34.9858C41.4792 35.1603 41.5323 35.3581 41.5323 35.5595C41.5323 35.7609 41.4791 35.9587 41.3781 36.1331C41.2771 36.3076 41.1318 36.4525 40.9568 36.5534V36.5534Z" fill="url(#paint0_linear)" fill-opacity="0.7" style="mix-blend-mode:multiply"/>
<path d="M40.9568 26.2151L21.9216 37.1898C21.5704 37.3923 21.1717 37.4989 20.7658 37.4989C20.3599 37.4989 19.9612 37.3923 19.61 37.1898L0.575497 26.2155C0.400471 26.1146 0.255167 25.9696 0.154157 25.7951C0.0531479 25.6207 -1.51861e-05 25.4228 3.25395e-09 25.2214C1.51927e-05 25.02 0.0532079 24.8221 0.154244 24.6477C0.25528 24.4732 0.400606 24.3283 0.575648 24.2274L19.6191 13.2517C19.9704 13.0492 20.3692 12.9426 20.7751 12.9427C21.181 12.9428 21.5797 13.0495 21.9309 13.2521L40.957 24.2272C41.132 24.3281 41.2772 24.4731 41.3782 24.6475C41.4792 24.822 41.5323 25.0198 41.5323 25.2212C41.5322 25.4225 41.4791 25.6204 41.3781 25.7948C41.2771 25.9692 41.1318 26.1142 40.9568 26.2151V26.2151Z" fill="#0019EE"/>
<path d="M41.2624 16.4511L22.2273 27.4258C21.876 27.6283 21.4773 27.735 21.0715 27.735C20.6656 27.735 20.2669 27.6283 19.9156 27.4258L0.881161 16.4515C0.706135 16.3506 0.560831 16.2056 0.459821 16.0312C0.358812 15.8567 0.305649 15.6588 0.305664 15.4574C0.305679 15.256 0.358872 15.0582 0.459908 14.8837C0.560944 14.7092 0.70627 14.5643 0.881311 14.4634L19.9248 3.48769C20.2761 3.28522 20.6748 3.17864 21.0807 3.17871C21.4866 3.17879 21.8853 3.28551 22.2365 3.48812L41.2626 14.4632C41.4376 14.5641 41.5829 14.7091 41.6838 14.8835C41.7848 15.058 41.838 15.2558 41.8379 15.4572C41.8379 15.6586 41.7847 15.8564 41.6837 16.0309C41.5827 16.2053 41.4374 16.3502 41.2624 16.4511Z" fill="url(#paint1_linear)"/>
<defs>
<linearGradient id="paint0_linear" x1="20.7661" y1="23.281" x2="20.7661" y2="47.8373" gradientUnits="userSpaceOnUse">
<stop stop-color="#6EF3E8"/>
<stop offset="1" stop-color="#6EF3E8" stop-opacity="0.32"/>
</linearGradient>
<linearGradient id="paint1_linear" x1="2" y1="15.1787" x2="51.9996" y2="15.313" gradientUnits="userSpaceOnUse">
<stop stop-color="#6EF3E8"/>
<stop offset="0.807292" stop-color="#6EF3E8" stop-opacity="0"/>
</linearGradient>
</defs>
</svg>
