<svg width="152" height="37" viewBox="0 0 152 37" fill="none" xmlns="http://www.w3.org/2000/svg">
<path d="M150.322 24.3793C148.762 24.3793 147.914 23.5315 147.914 21.9714V16.1382H151.712V13.8321H147.846V10.8137H147.405L142.895 15.6295V16.1721H145.201V22.2088C145.201 25.0576 146.964 26.8211 149.779 26.8211H151.78V24.4132H150.322V24.3793Z" fill="white"/>
<path d="M135.907 27.0922C139.841 27.0922 142.792 24.2095 142.792 20.3094C142.792 16.4432 139.841 13.5266 135.907 13.5266C131.94 13.5266 128.989 16.4093 128.989 20.3094C128.989 24.2095 131.94 27.0922 135.907 27.0922ZM135.907 24.5826C133.432 24.5826 131.702 22.819 131.702 20.3094C131.702 17.8337 133.466 16.0702 135.907 16.0702C138.349 16.0702 140.113 17.8337 140.113 20.3094C140.113 22.7851 138.349 24.5826 135.907 24.5826Z" fill="white"/>
<path d="M121.018 13.5266C119.153 13.5266 117.525 14.2388 116.338 15.4258L115.829 13.8318H114.065V31.3993H116.711V25.5322C117.83 26.5157 119.322 27.0922 120.984 27.0922C124.85 27.0922 127.699 24.1756 127.699 20.3094C127.699 16.4432 124.85 13.5266 121.018 13.5266ZM120.78 24.5826C118.339 24.5826 116.541 22.7512 116.541 20.3094C116.541 17.9015 118.339 16.0702 120.78 16.0702C123.222 16.0702 124.986 17.9015 124.986 20.3094C124.986 22.7512 123.222 24.5826 120.78 24.5826Z" fill="white"/>
<path d="M80.1194 10.4749C80.1194 11.2211 80.7298 11.8654 81.4759 11.8654C82.2221 11.8654 82.8325 11.255 82.8325 10.4749C82.8325 9.72884 82.2221 9.08447 81.4759 9.08447C80.7298 9.11839 80.1194 9.72884 80.1194 10.4749ZM80.1533 26.7876H82.7986V13.8324H80.1533V26.7876Z" fill="white"/>
<path d="M92.7006 13.5601C90.8014 13.5601 89.2075 14.3401 88.2579 15.6627L87.7153 13.8314H85.8839V26.7526H88.5292V19.8341C88.5292 17.5619 89.9536 15.934 91.9884 15.934C93.9215 15.934 94.9729 17.1889 94.9729 19.5289V26.7526H97.6181V18.9863C97.6521 15.7984 95.7529 13.5601 92.7006 13.5601Z" fill="white"/>
<path d="M71.1986 27.0922C75.1326 27.0922 78.0831 24.2095 78.0831 20.3094C78.0831 16.4432 75.1326 13.5266 71.1986 13.5266C67.2307 13.5266 64.2802 16.4093 64.2802 20.3094C64.2802 24.2095 67.2307 27.0922 71.1986 27.0922ZM71.1986 24.5826C68.7229 24.5826 66.9933 22.819 66.9933 20.3094C66.9933 17.8337 68.7568 16.0702 71.1986 16.0702C73.6404 16.0702 75.4039 17.8337 75.4039 20.3094C75.4039 22.7851 73.6404 24.5826 71.1986 24.5826Z" fill="white"/>
<path d="M54.9886 27.092C59.0243 27.092 62.1783 24.5485 63.094 20.6144H60.2791C59.4991 22.9884 57.566 24.4467 54.9886 24.4467C51.6311 24.4467 49.1553 21.9371 49.1553 18.4439C49.1553 14.9508 51.6311 12.4073 54.9886 12.4073C57.4643 12.4073 59.4313 13.7638 60.2452 16.0021H63.0262C62.1444 12.2038 58.9565 9.76196 55.0225 9.76196C50.071 9.76196 46.4083 13.4247 46.4083 18.4439C46.3744 23.4293 50.0371 27.092 54.9886 27.092Z" fill="white"/>
<path d="M105.793 27.0251C109.185 27.0251 111.898 25.2616 111.898 21.9041C111.898 18.2753 108.846 17.5631 106.234 16.8849C104.233 16.4101 102.538 16.0031 102.538 14.443C102.538 13.0865 103.894 12.3065 105.59 12.3065C107.354 12.3065 108.71 13.2221 108.71 14.8839H111.423C111.423 11.7299 109.253 9.729 105.624 9.729C102.063 9.729 99.7568 11.5264 99.7568 14.5448C99.7568 18.004 102.707 18.7162 105.251 19.3267C107.252 19.8015 109.049 20.2084 109.049 21.9041C109.049 23.4302 107.557 24.3798 105.76 24.3798C103.793 24.3798 102.266 23.3285 102.266 21.4632H99.4855C99.4855 24.9225 102.063 27.0251 105.793 27.0251Z" fill="white"/>
<path d="M30.5734 5.7568C37.5597 12.7431 37.5597 24.1043 30.5734 31.0905C23.5872 38.0768 12.226 38.0768 5.23971 31.0905C-1.74657 24.1043 -1.74657 12.7431 5.23971 5.7568C12.2599 -1.22948 23.5872 -1.22948 30.5734 5.7568Z" fill="white"/>
<path d="M30.5734 5.7568C37.5597 12.7431 37.5597 24.1043 30.5734 31.0905C23.5872 38.0768 12.226 38.0768 5.23971 31.0905C-1.74657 24.1043 -1.74657 12.7431 5.23971 5.7568C12.2599 -1.22948 23.5872 -1.22948 30.5734 5.7568Z" fill="white"/>
<path d="M28.7422 19.6318C28.9796 20.2423 29.4544 20.751 30.0648 20.9545C29.4544 21.1919 28.9457 21.6667 28.7422 22.2771C28.5048 21.6667 28.03 21.158 27.4196 20.9545C28.03 20.751 28.5387 20.2423 28.7422 19.6318Z" fill="#000B66"/>
<path d="M11.3445 9.89429C11.5819 10.5047 12.0567 11.0134 12.6671 11.2169C12.0567 11.4543 11.548 11.9291 11.3445 12.5396C11.1071 11.9291 10.6323 11.4204 10.0219 11.2169C10.6323 11.0134 11.1071 10.5047 11.3445 9.89429Z" fill="#000B66"/>
<path d="M16.1938 4.30176C16.4991 5.08178 17.1095 5.72614 17.9235 6.03137C17.1434 6.3366 16.4991 6.94705 16.1938 7.76098C15.8886 6.98096 15.2782 6.3366 14.4642 6.03137C15.2782 5.72614 15.8886 5.08178 16.1938 4.30176Z" fill="#000B66"/>
<path d="M27.0133 9.2168C22.3332 9.52202 19.1114 11.1499 15.3809 15.6605C14.5669 16.6779 13.0069 18.8145 13.0069 18.8145C13.4138 17.5257 13.7869 16.7457 14.126 16.0674C13.9565 16.1013 13.7869 16.1013 13.5834 16.1352C12.3286 16.2709 10.8703 16.4066 9.61548 18.1362L9.54765 18.204C8.76763 19.2892 7.9876 20.3067 7.54672 20.9171C7.51281 20.9849 7.47889 21.0189 7.44498 21.0528C7.10584 21.5276 7.0041 21.6632 7.58064 21.8328H7.61455H7.64846C8.29283 22.0363 8.53023 22.1041 9.31025 21.2902C9.51373 21.0867 9.78505 20.8154 10.0564 20.5101C10.6329 19.8997 11.2773 19.2214 11.4807 19.0858C11.8538 18.8484 12.3964 18.9162 12.7695 19.0179C12.2608 19.764 11.7181 20.578 11.1755 21.4258C11.1755 21.4258 11.1755 21.7989 11.4468 22.3415C12.7695 21.1545 14.0582 20.6119 14.6687 20.4084C14.2278 20.6797 13.7191 21.1206 13.1086 21.7311C11.6164 23.2233 10.9381 24.6137 10.4633 25.6312C10.3955 25.699 10.3616 25.7668 10.2938 25.8007L10.4294 25.6651L10.2938 25.8007C10.3616 25.7329 10.3955 25.699 10.4633 25.6312C11.4807 25.1564 12.8373 24.4781 14.3634 22.9859C14.9739 22.3754 15.4148 21.8328 15.6861 21.4258C15.4826 22.0363 14.9739 23.325 13.753 24.6477C14.2956 24.919 14.6687 24.919 14.6687 24.919C15.5165 24.3763 16.3304 23.8337 17.0765 23.325C17.1783 23.6981 17.2461 24.2407 17.0087 24.6137C16.8731 24.8172 16.1948 25.4616 15.5843 26.0381C15.313 26.3094 15.0078 26.5808 14.8043 26.7842C13.9904 27.5982 14.0582 27.8017 14.2617 28.446V28.4799V28.5478C14.4313 29.1243 14.5669 29.0226 15.0417 28.6834C15.0756 28.6495 15.1435 28.6156 15.1774 28.5817C15.7878 28.1408 16.8052 27.3947 17.8905 26.5807L17.9583 26.5129C19.6879 25.2242 19.8236 23.7998 19.9592 22.545C19.9932 22.3754 19.9931 22.1719 20.0271 22.0024C19.3827 22.3415 18.6027 22.7146 17.28 23.1215C17.28 23.1215 19.4166 21.5615 20.434 20.7475C25.1142 17.1188 26.7081 13.8969 27.0133 9.2168ZM21.5532 16.7796C20.9767 17.3562 20.061 17.3562 19.5184 16.7796C18.9418 16.2031 18.9418 15.2874 19.5184 14.7448C20.0949 14.1682 21.0106 14.1682 21.5532 14.7448C22.0958 15.3213 22.0958 16.237 21.5532 16.7796Z" fill="#000B66"/>
<path d="M8.12173 28.1057C8.15564 28.0379 8.86784 25.5282 10.5296 23.4595C9.68177 23.9343 8.66435 24.7482 7.51128 25.9013C6.05298 27.3596 5.06947 28.7501 4.32336 30.0727C4.62859 30.4118 4.93381 30.751 5.23904 31.0562C5.51035 31.3275 5.81558 31.5988 6.1208 31.8701C7.44345 31.124 8.83392 30.1405 10.2922 28.6822C11.4792 27.4952 12.2592 26.4778 12.734 25.6639C10.6992 27.3596 8.18956 28.1057 8.12173 28.1057Z" fill="#000B66"/>
</svg>
